<?xml version="1.0" encoding="UTF-8"?>
<svg version="1.1" xmlns="http://www.w3.org/2000/svg" width="512" height="512">
<path d="M0 0 C4.41389526 1.248103 8.4212986 1.25519154 12.98425198 1.2311306 C14.41173491 1.23558581 14.41173491 1.23558581 15.86805588 1.24013102 C19.05309469 1.24776235 22.23794861 1.24128051 25.42298794 1.2349453 C27.70805391 1.23769556 29.99311892 1.24137568 32.27818203 1.24591637 C37.19724157 1.25402633 42.11625566 1.25619734 47.03532124 1.25396919 C54.81310524 1.25113685 62.59079836 1.26548482 70.36855984 1.28294945 C81.27260372 1.30613955 92.17664135 1.32526018 103.08070278 1.33797264 C104.11807887 1.3391882 104.11807887 1.3391882 105.17641205 1.34042831 C114.99181842 1.35165093 124.80721911 1.35693144 134.62263102 1.35981543 C135.31391189 1.36001942 136.00519276 1.36022341 136.71742153 1.36043358 C137.75307524 1.36073348 137.75307524 1.36073348 138.80965125 1.36103944 C150.32813822 1.36477396 161.84652589 1.38409989 173.3649717 1.41552794 C181.09711182 1.43576082 188.82898696 1.43810295 196.5611428 1.42724776 C201.37106606 1.42464257 206.18083468 1.43863529 210.99071789 1.4573288 C213.22116883 1.46265572 215.45164816 1.4611455 217.6820879 1.4522934 C220.72751567 1.44118159 223.77189603 1.4545936 226.81725979 1.47405052 C227.69936813 1.46492586 228.58147648 1.45580121 229.49031538 1.44640005 C238.10109341 1.55341492 242.94296811 5.07737132 249.00062466 11.15950584 C249.50561993 11.66245674 250.0106152 12.16540764 250.53091335 12.68359947 C252.17879018 14.32849658 253.81574005 15.98380593 255.45252895 17.63973045 C256.6030004 18.7932637 257.75406721 19.94620342 258.90569973 21.0985775 C261.3081628 23.50562547 263.70565357 25.91747661 266.09925747 28.33333397 C269.16687458 31.42932754 272.24319033 34.51649018 275.32279587 37.60055447 C277.69530508 39.97721881 280.06497014 42.35670064 282.43359852 44.73723221 C283.5674481 45.87677474 284.70176447 47.01585301 285.83655643 48.15445709 C287.41862041 49.74339463 288.99725138 51.33566098 290.57484341 52.92903709 C291.47306316 53.83408485 292.37128292 54.73913261 293.29672146 55.67160606 C297.20947474 59.83788083 297.71545855 62.10272815 297.72430992 67.72225571 C297.72811559 68.41476409 297.73192126 69.10727248 297.73584226 69.82076597 C297.74620971 72.15855648 297.74224247 74.4961065 297.73840237 76.8339138 C297.74285198 78.51998528 297.7481651 80.20605466 297.75427109 81.89212096 C297.76849467 86.53894954 297.77011356 91.18571139 297.76967418 95.83255863 C297.77131855 100.83879744 297.78437784 105.84500843 297.79586697 110.85123253 C297.8187449 121.80352024 297.82664044 132.75578861 297.83169341 143.70809698 C297.8349469 150.54271897 297.84146723 157.37733532 297.8486948 164.21195412 C297.86826363 183.12391479 297.88466643 202.0358702 297.88757133 220.94784164 C297.8877589 222.15873147 297.88794647 223.3696213 297.88813973 224.61720476 C297.88850599 227.07211757 297.88886968 229.52703037 297.88923084 231.98194318 C297.88941365 233.20061454 297.88959646 234.4192859 297.88978481 235.6748867 C297.89005564 237.50511678 297.89005564 237.50511678 297.89033193 239.3723212 C297.89387527 259.15313917 297.92090638 278.93384839 297.9582827 298.71462862 C297.99632294 319.00864629 298.01572849 339.30260994 298.01603085 359.59666407 C298.01661635 370.99699282 298.02516821 382.39719182 298.05402851 393.79748726 C298.07848505 403.50306022 298.08586407 413.20845611 298.07078099 422.91405152 C298.0635888 427.86862331 298.0645685 432.82284506 298.08719158 437.77737808 C298.10769059 442.31003203 298.10526687 446.8420648 298.08431674 451.37471135 C298.08080437 453.01736923 298.08580526 454.66007112 298.10002118 456.30267124 C298.11806806 458.53094463 298.10547873 460.75700589 298.08507347 462.98521042 C298.08588793 464.22413052 298.08670238 465.46305062 298.08754152 466.73951375 C297.27326685 470.9723476 295.90563684 472.43631953 292.4642477 474.9795742 C289.5791502 475.60516936 289.5791502 475.60516936 286.33442593 475.6059866 C285.09443214 475.61840863 283.85443836 475.63083067 282.57686901 475.64362913 C281.20371271 475.63212831 279.8305603 475.6201561 278.45741177 475.60776329 C276.99647176 475.61280821 275.53553793 475.62003662 274.07461834 475.62926143 C270.05920344 475.64821886 266.0443962 475.63593069 262.02899647 475.6185385 C257.69899029 475.60518598 253.36907428 475.62059396 249.03907681 475.63236046 C240.55630121 475.65075727 232.07375568 475.64221116 223.59098721 475.62427223 C216.69801615 475.61025705 209.80510762 475.6063511 202.91212368 475.60971451 C201.93176687 475.61019195 200.95141005 475.61066939 199.94134545 475.6111613 C197.94988376 475.61218761 195.95842209 475.61324297 193.96696043 475.61432707 C176.35012468 475.62289826 158.73340014 475.60620553 141.11659145 475.57649803 C124.01498143 475.54765963 106.91353162 475.54057655 89.81190395 475.55599022 C71.19757947 475.57274426 52.58333109 475.57679472 33.96900463 475.55927986 C31.98479367 475.55743544 30.0005827 475.55560071 28.01637173 475.55377579 C27.04005519 475.5528637 26.06373866 475.55195161 25.05783677 475.55101188 C18.1716876 475.54540152 11.28557553 475.54871831 4.39942837 475.55532074 C-3.99041681 475.56304541 -12.38010416 475.55633265 -20.76991749 475.5311457 C-25.05206395 475.51863048 -29.33396446 475.51252852 -33.61612034 475.52368736 C-37.53432827 475.53370515 -41.45204501 475.52532325 -45.370193 475.50210618 C-46.78936114 475.49693349 -48.20857304 475.49853284 -49.62772226 475.50750083 C-51.55377301 475.51866174 -53.47992387 475.50289178 -55.40593052 475.48573208 C-57.01206903 475.48394486 -57.01206903 475.48394486 -58.65065479 475.48212153 C-62.2725064 474.851241 -63.94349504 473.54385454 -66.5357523 470.9795742 C-67.8409245 467.0640576 -67.67003592 463.3474645 -67.65600681 459.26675987 C-67.65686124 458.36581508 -67.65771566 457.46487028 -67.65859598 456.53662413 C-67.66024835 453.50562463 -67.65473334 450.47467997 -67.64927769 447.44368553 C-67.64899574 445.27578292 -67.6491537 443.10788021 -67.64972019 440.93997765 C-67.65000786 435.04364081 -67.64411602 429.14732419 -67.63714623 423.25099206 C-67.63090765 417.09303085 -67.6303085 410.93506921 -67.62912083 404.77710533 C-67.62600901 393.11118113 -67.61779761 381.44526626 -67.60777134 369.77934617 C-67.59660559 356.50020735 -67.59109858 343.22106916 -67.5860759 329.9419266 C-67.57561489 302.62113728 -67.55801831 275.30035627 -67.5357523 247.9795742 C-68.86197102 247.68477669 -68.86197102 247.68477669 -70.21498203 247.38402367 C-71.96148548 246.98973671 -71.96148548 246.98973671 -73.74327183 246.58748436 C-74.89554264 246.32907768 -76.04781345 246.07067101 -77.23500156 245.80443382 C-81.52100045 244.73336009 -85.4155638 243.21502158 -89.4107523 241.3545742 C-90.16831821 241.00757469 -90.92588413 240.66057518 -91.70640659 240.30306053 C-104.74544382 234.19489168 -115.94369374 226.71449185 -126.5357523 216.9795742 C-127.47032261 216.13910545 -128.40489292 215.2986367 -129.36778355 214.4326992 C-146.63517724 198.12872232 -157.61611007 176.79921464 -163.5357523 153.9795742 C-163.85415073 152.82586327 -164.17254917 151.67215233 -164.50059605 150.48348045 C-172.50081697 116.23368672 -164.23613344 81.55625354 -146.5357523 51.9795742 C-136.89739093 36.77041681 -122.84949639 23.32546214 -107.5357523 13.9795742 C-106.4632523 13.29637108 -105.3907523 12.61316795 -104.2857523 11.9092617 C-74.98327435 -5.92997834 -32.56610082 -13.10510077 0 0 Z " fill="#EBEEF0" transform="translate(190.53575229644775,21.02042579650879)"/>
<path d="M0 0 C1.49660156 1.22976562 1.49660156 1.22976562 3.0234375 2.484375 C11.46434224 9.79539485 19.08644109 18.48907407 25 28 C25 28.66 25 29.32 25 30 C25.99 29.67 26.98 29.34 28 29 C29.57472005 28.90245458 31.15320827 28.86079711 32.73092651 28.85282898 C34.19033661 28.84209602 34.19033661 28.84209602 35.67922974 28.83114624 C36.74527435 28.82845734 37.81131897 28.82576843 38.90966797 28.82299805 C40.03348877 28.81642685 41.15730957 28.80985565 42.31518555 28.80308533 C46.04085351 28.78334476 49.76648119 28.77168939 53.4921875 28.76171875 C54.76297276 28.75764322 56.03375801 28.7535677 57.34305191 28.74936867 C63.37279199 28.73065833 69.40250761 28.71609156 75.43226898 28.7077567 C82.38943461 28.69798054 89.3462824 28.67164789 96.30333602 28.63125581 C102.3320137 28.59745613 108.360537 28.58561179 114.38931656 28.58155251 C116.95300582 28.57667265 119.51669133 28.56501918 122.08031845 28.54651451 C125.66431968 28.52224803 129.24748528 28.52306545 132.83154297 28.5300293 C133.89353912 28.51721924 134.95553528 28.50440918 136.04971313 28.49121094 C140.51527816 28.52289775 143.23144946 28.54909953 147.13943481 30.84187317 C149.51884633 33.60182583 149.9245212 35.37701778 150 39 C148.87981101 42.36056696 148.05465901 42.96356066 145 45 C142.89732838 45.24609566 142.89732838 45.24609566 140.42524719 45.24050903 C139.4871521 45.24325836 138.54905701 45.24600769 137.58253479 45.24884033 C136.55538864 45.24164978 135.52824249 45.23445923 134.4699707 45.22705078 C133.38688629 45.22734283 132.30380188 45.22763489 131.18789673 45.22793579 C127.600444 45.22654012 124.0131978 45.21096759 120.42578125 45.1953125 C117.94142266 45.19158322 115.45706261 45.18873585 112.97270203 45.18673706 C107.097257 45.17987556 101.22188848 45.16410542 95.34647483 45.14403808 C88.0011775 45.11949471 80.65587584 45.10874925 73.31054688 45.09765625 C60.20699345 45.07619438 47.10350143 45.04243365 34 45 C34.54140625 46.22976562 34.54140625 46.22976562 35.09375 47.484375 C35.5578125 48.56203125 36.021875 49.6396875 36.5 50.75 C36.9640625 51.81734375 37.428125 52.8846875 37.90625 53.984375 C39 57 39 57 39 61 C39.80360521 60.99539104 40.60721043 60.99078207 41.43516731 60.98603344 C60.99001759 60.87560446 80.54480563 60.79286787 100.0999012 60.74093914 C109.55662357 60.71515918 119.01313779 60.68001265 128.46972656 60.62280273 C136.71225081 60.57296137 144.95462431 60.54070747 153.19729507 60.52955753 C157.56167314 60.52303998 161.92561995 60.5077265 166.28985977 60.47134972 C170.3988427 60.43737846 174.50721726 60.42694917 178.61632729 60.43446159 C180.12319433 60.43308753 181.63008198 60.42316119 183.13682747 60.40397263 C195.93865297 60.24895513 195.93865297 60.24895513 199.90426636 63.31282043 C202 66 202 66 202.625 69.5625 C201.91797896 73.45111572 201.09308401 74.63470046 198 77 C195.25246762 78.37376619 193.0653991 78.12278863 189.98898315 78.12025452 C188.70728241 78.12162918 187.42558167 78.12300385 186.1050415 78.12442017 C184.67663551 78.12088078 183.24822975 78.11724596 181.81982422 78.11352539 C180.32201133 78.11324345 178.82419831 78.11340139 177.3263855 78.1139679 C173.25224167 78.11425559 169.17812709 78.10836338 165.10399008 78.10139394 C160.84920492 78.09515574 156.59441915 78.09455623 152.33963013 78.09336853 C144.27901608 78.0902566 136.21841555 78.08204505 128.15780747 78.07201904 C118.98260498 78.06085364 109.80740186 78.05534637 100.63219428 78.05032361 C81.75478852 78.03986233 62.87739534 78.02226554 44 78 C44.16265854 78.76406662 44.32531708 79.52813324 44.49290466 80.31535339 C45.06189536 83.32768426 45.11275445 86.11084732 45.09765625 89.17578125 C45.09443359 90.33271484 45.09121094 91.48964844 45.08789062 92.68164062 C45.07951172 93.87982422 45.07113281 95.07800781 45.0625 96.3125 C45.05798828 97.53001953 45.05347656 98.74753906 45.04882812 100.00195312 C45.03706578 103.00135226 45.02062826 106.00065089 45 109 C46.22917648 108.99111755 47.45835297 108.98223511 48.72477722 108.9730835 C60.3047744 108.89202055 71.88471407 108.83204546 83.46493053 108.79275131 C89.41855374 108.77187068 95.37194801 108.74354382 101.32543945 108.69824219 C107.07018092 108.65480221 112.81470208 108.63086648 118.55959511 108.62049103 C120.75208314 108.6130964 122.94455903 108.59865655 125.13695335 108.57707977 C128.2063954 108.54807098 131.27492549 108.54404302 134.34448242 108.54589844 C135.25222916 108.53151733 136.15997589 108.51713623 137.0952301 108.50231934 C141.27371446 108.52967587 143.43928114 108.6516955 147.06416321 110.90338135 C149.15209639 113.16472883 149.66292675 113.97538264 149.5625 117 C149.3732302 120.07993579 149.08113612 120.89452304 147.125 123.4375 C144.16215206 125.61606466 142.54245648 126.12680249 138.92514038 126.15821838 C137.64627205 126.17290161 137.64627205 126.17290161 136.34156799 126.18788147 C135.40433395 126.19363693 134.46709991 126.1993924 133.50146484 126.20532227 C132.51606216 126.21522186 131.53065948 126.22512146 130.51539612 126.23532104 C127.24726797 126.26699403 123.97912526 126.29171639 120.7109375 126.31640625 C118.44934707 126.33697077 116.18776054 126.3579671 113.92617798 126.37937927 C107.96511986 126.43465179 102.00402675 126.4840382 96.04290771 126.53222656 C89.9634692 126.58240381 83.88408166 126.63810956 77.8046875 126.69335938 C65.86983519 126.80100429 53.93493867 126.90243517 42 127 C40.68 131.62 39.36 136.24 38 141 C40.97129158 141.00213753 40.97129158 141.00213753 44.00260925 141.00431824 C62.64652094 141.02010106 81.2902233 141.06338515 99.93401623 141.13209057 C109.51959468 141.16675181 119.10502915 141.19209758 128.69067383 141.19555664 C137.04500689 141.19859496 145.39908362 141.21906756 153.75331765 141.26052457 C158.17738196 141.28186838 162.60108171 141.29444817 167.02519798 141.28615379 C171.18930091 141.27862226 175.35266465 141.29439909 179.51663208 141.32806015 C181.0448266 141.33630438 182.57309448 141.33603038 184.10128212 141.32659721 C186.18921733 141.31498477 188.27472597 141.33407187 190.36247253 141.36076355 C191.53038424 141.36352893 192.69829596 141.36629431 193.90159893 141.36914349 C197.9479086 142.19300094 199.4566967 143.81372274 202 147 C202.57210224 150.50412619 202.44040698 152.22404484 200.6875 155.3125 C198.2871088 157.7128912 196.41021268 157.98686005 193.06630611 158.09397221 C191.8579186 158.07964366 190.64953108 158.06531511 189.40452576 158.05055237 C188.73114845 158.04420129 188.05777114 158.03785022 187.36398846 158.03130668 C185.88685146 158.01684146 184.40973591 158.00004797 182.93264771 157.98124886 C179.68698256 157.94009498 176.44123949 157.91030498 173.19545949 157.87979782 C171.44721931 157.86329206 169.69898445 157.84621498 167.950755 157.82860959 C156.73054649 157.71773644 145.50998387 157.68709116 134.28932273 157.65329087 C123.36287941 157.61993123 112.43809323 157.56110374 101.51245117 157.4206543 C92.83408211 157.30923914 84.15745105 157.25451295 75.4783445 157.26622146 C70.88661892 157.27034314 66.29900574 157.24629061 61.70812798 157.15368843 C43.99248272 155.9170228 43.99248272 155.9170228 27.55836868 160.54258347 C23.96945892 164.19484117 22.32069485 168.14516208 20.82670784 172.96798515 C19.35061144 176.59617113 16.65831214 179.18718 13.9375 181.9375 C13.40211137 182.49246627 12.86672274 183.04743254 12.31511021 183.61921597 C11.35237183 184.61305452 10.38306307 185.60056496 9.40771484 186.58203125 C8.09569059 187.90361239 6.80662427 189.24787635 5.51953125 190.59375 C-0.33747649 196.642295 -0.33747649 196.642295 -3.01855469 198.08984375 C-5.50713572 199.53903075 -7.18128108 200.75249246 -9 203 C-10.04337553 207.71374046 -9.89183654 212.31723053 -9.75 217.125 C-9.70662853 219.64819914 -9.67985253 222.17175324 -9.671875 224.6953125 C-9.62691895 226.3661792 -9.62691895 226.3661792 -9.58105469 228.07080078 C-10 231 -10 231 -11.54003906 233.36083984 C-14.87108728 235.58043668 -17.8148748 235.57538186 -21.6875 235.53125 C-22.42701904 235.5350769 -23.16653809 235.53890381 -23.9284668 235.54284668 C-25.4884579 235.54556271 -27.04849478 235.53822292 -28.60839844 235.52148438 C-30.99257186 235.50006673 -33.37373249 235.52129263 -35.7578125 235.546875 C-37.2760483 235.54423166 -38.79428223 235.53910656 -40.3125 235.53125 C-41.02301514 235.53934692 -41.73353027 235.54744385 -42.46557617 235.55578613 C-45.89865432 235.4909368 -47.68735439 235.24673244 -50.41796875 233.09179688 C-53.08662193 229.56324433 -53.09536054 227.38658501 -53 223 C-54.14855469 223.2165625 -55.29710937 223.433125 -56.48046875 223.65625 C-58.04937344 223.93808917 -59.61839018 224.21930509 -61.1875 224.5 C-61.93708984 224.64308594 -62.68667969 224.78617188 -63.45898438 224.93359375 C-70.57750078 226.18454642 -76.46177761 226 -84 226 C-84 299.92 -84 373.84 -84 450 C-106 450 -106 450 -111 446 C-112.3051722 442.0844834 -112.13428363 438.3678903 -112.12025452 434.28718567 C-112.12110894 433.38624088 -112.12196337 432.48529608 -112.12284368 431.55704993 C-112.12449605 428.52605042 -112.11898104 425.49510577 -112.11352539 422.46411133 C-112.11324344 420.29620871 -112.11340141 418.128306 -112.1139679 415.96040344 C-112.11425557 410.0640666 -112.10836373 404.16774998 -112.10139394 398.27141786 C-112.09515536 392.11345665 -112.0945562 385.95549501 -112.09336853 379.79753113 C-112.09025671 368.13160692 -112.08204532 356.46569205 -112.07201904 344.79977196 C-112.06085329 331.52063315 -112.05534629 318.24149495 -112.05032361 304.9623524 C-112.03986259 277.64156308 -112.02226602 250.32078206 -112 223 C-113.32621872 222.70520248 -113.32621872 222.70520248 -114.67922974 222.40444946 C-116.42573318 222.01016251 -116.42573318 222.01016251 -118.20751953 221.60791016 C-119.35979034 221.34950348 -120.51206116 221.0910968 -121.69924927 220.82485962 C-125.98524815 219.75378589 -129.87981151 218.23544737 -133.875 216.375 C-134.63256592 216.02800049 -135.39013184 215.68100098 -136.1706543 215.32348633 C-149.20969153 209.21531748 -160.40794144 201.73491765 -171 192 C-171.93457031 191.15953125 -172.86914062 190.3190625 -173.83203125 189.453125 C-191.09942495 173.14914812 -202.08035777 151.81964043 -208 129 C-208.31839844 127.84628906 -208.63679688 126.69257813 -208.96484375 125.50390625 C-216.96506468 91.25411252 -208.70038115 56.57667934 -191 27 C-181.36163863 11.79084261 -167.31374409 -1.65411206 -152 -11 C-150.9275 -11.68320312 -149.855 -12.36640625 -148.75 -13.0703125 C-101.60821571 -41.77005618 -41.7098233 -34.69297372 0 0 Z " fill="#D7EBFD" transform="translate(235,46)"/>
<path d="M0 0 C32.02625891 -1.29109218 60.42948773 9.56298855 85 30 C85.99773437 30.81984375 86.99546875 31.6396875 88.0234375 32.484375 C96.46434224 39.79539485 104.08644109 48.48907407 110 58 C110 58.66 110 59.32 110 60 C110.99 59.67 111.98 59.34 113 59 C114.57472005 58.90245458 116.15320827 58.86079711 117.73092651 58.85282898 C119.19033661 58.84209602 119.19033661 58.84209602 120.67922974 58.83114624 C121.74527435 58.82845734 122.81131897 58.82576843 123.90966797 58.82299805 C125.03348877 58.81642685 126.15730957 58.80985565 127.31518555 58.80308533 C131.04085351 58.78334476 134.76648119 58.77168939 138.4921875 58.76171875 C139.76297276 58.75764322 141.03375801 58.7535677 142.34305191 58.74936867 C148.37279199 58.73065833 154.40250761 58.71609156 160.43226898 58.7077567 C167.38943461 58.69798054 174.3462824 58.67164789 181.30333602 58.63125581 C187.3320137 58.59745613 193.360537 58.58561179 199.38931656 58.58155251 C201.95300582 58.57667265 204.51669133 58.56501918 207.08031845 58.54651451 C210.66431968 58.52224803 214.24748528 58.52306545 217.83154297 58.5300293 C218.89353912 58.51721924 219.95553528 58.50440918 221.04971313 58.49121094 C225.51527816 58.52289775 228.23144946 58.54909953 232.13943481 60.84187317 C234.51884633 63.60182583 234.9245212 65.37701778 235 69 C233.87981101 72.36056696 233.05465901 72.96356066 230 75 C227.89732838 75.24609566 227.89732838 75.24609566 225.42524719 75.24050903 C224.4871521 75.24325836 223.54905701 75.24600769 222.58253479 75.24884033 C221.55538864 75.24164978 220.52824249 75.23445923 219.4699707 75.22705078 C218.38688629 75.22734283 217.30380188 75.22763489 216.18789673 75.22793579 C212.600444 75.22654012 209.0131978 75.21096759 205.42578125 75.1953125 C202.94142266 75.19158322 200.45706261 75.18873585 197.97270203 75.18673706 C192.097257 75.17987556 186.22188848 75.16410542 180.34647483 75.14403808 C173.0011775 75.11949471 165.65587584 75.10874925 158.31054688 75.09765625 C145.20699345 75.07619438 132.10350143 75.04243365 119 75 C119.3609375 75.81984375 119.721875 76.6396875 120.09375 77.484375 C120.5578125 78.56203125 121.021875 79.6396875 121.5 80.75 C121.9640625 81.81734375 122.428125 82.8846875 122.90625 83.984375 C124 87 124 87 124 91 C124.80360521 90.99539104 125.60721043 90.99078207 126.43516731 90.98603344 C145.99001759 90.87560446 165.54480563 90.79286787 185.0999012 90.74093914 C194.55662357 90.71515918 204.01313779 90.68001265 213.46972656 90.62280273 C221.71225081 90.57296137 229.95462431 90.54070747 238.19729507 90.52955753 C242.56167314 90.52303998 246.92561995 90.5077265 251.28985977 90.47134972 C255.3988427 90.43737846 259.50721726 90.42694917 263.61632729 90.43446159 C265.12319433 90.43308753 266.63008198 90.42316119 268.13682747 90.40397263 C280.93865297 90.24895513 280.93865297 90.24895513 284.90426636 93.31282043 C287 96 287 96 287.625 99.5625 C286.91797896 103.45111572 286.09308401 104.63470046 283 107 C280.25246762 108.37376619 278.0653991 108.12278863 274.98898315 108.12025452 C273.70728241 108.12162918 272.42558167 108.12300385 271.1050415 108.12442017 C269.67663551 108.12088078 268.24822975 108.11724596 266.81982422 108.11352539 C265.32201133 108.11324345 263.82419831 108.11340139 262.3263855 108.1139679 C258.25224167 108.11425559 254.17812709 108.10836338 250.10399008 108.10139394 C245.84920492 108.09515574 241.59441915 108.09455623 237.33963013 108.09336853 C229.27901608 108.0902566 221.21841555 108.08204505 213.15780747 108.07201904 C203.98260498 108.06085364 194.80740186 108.05534637 185.63219428 108.05032361 C166.75478852 108.03986233 147.87739534 108.02226554 129 108 C129.16265854 108.76406662 129.32531708 109.52813324 129.49290466 110.31535339 C130.06189536 113.32768426 130.11275445 116.11084732 130.09765625 119.17578125 C130.09443359 120.33271484 130.09121094 121.48964844 130.08789062 122.68164062 C130.07951172 123.87982422 130.07113281 125.07800781 130.0625 126.3125 C130.05798828 127.53001953 130.05347656 128.74753906 130.04882812 130.00195312 C130.03706578 133.00135226 130.02062826 136.00065089 130 139 C131.22917648 138.99111755 132.45835297 138.98223511 133.72477722 138.9730835 C145.3047744 138.89202055 156.88471407 138.83204546 168.46493053 138.79275131 C174.41855374 138.77187068 180.37194801 138.74354382 186.32543945 138.69824219 C192.07018092 138.65480221 197.81470208 138.63086648 203.55959511 138.62049103 C205.75208314 138.6130964 207.94455903 138.59865655 210.13695335 138.57707977 C213.2063954 138.54807098 216.27492549 138.54404302 219.34448242 138.54589844 C220.25222916 138.53151733 221.15997589 138.51713623 222.0952301 138.50231934 C226.27371446 138.52967587 228.43928114 138.6516955 232.06416321 140.90338135 C234.15209639 143.16472883 234.66292675 143.97538264 234.5625 147 C234.3732302 150.07993579 234.08113612 150.89452304 232.125 153.4375 C229.16215206 155.61606466 227.54245648 156.12680249 223.92514038 156.15821838 C222.64627205 156.17290161 222.64627205 156.17290161 221.34156799 156.18788147 C220.40433395 156.19363693 219.46709991 156.1993924 218.50146484 156.20532227 C217.51606216 156.21522186 216.53065948 156.22512146 215.51539612 156.23532104 C212.24726797 156.26699403 208.97912526 156.29171639 205.7109375 156.31640625 C203.44934707 156.33697077 201.18776054 156.3579671 198.92617798 156.37937927 C192.96511986 156.43465179 187.00402675 156.4840382 181.04290771 156.53222656 C174.9634692 156.58240381 168.88408166 156.63810956 162.8046875 156.69335938 C150.86983519 156.80100429 138.93493867 156.90243517 127 157 C125.68 161.62 124.36 166.24 123 171 C125.97129158 171.00213753 125.97129158 171.00213753 129.00260925 171.00431824 C147.64652094 171.02010106 166.2902233 171.06338515 184.93401623 171.13209057 C194.51959468 171.16675181 204.10502915 171.19209758 213.69067383 171.19555664 C222.04500689 171.19859496 230.39908362 171.21906756 238.75331765 171.26052457 C243.17738196 171.28186838 247.60108171 171.29444817 252.02519798 171.28615379 C256.18930091 171.27862226 260.35266465 171.29439909 264.51663208 171.32806015 C266.0448266 171.33630438 267.57309448 171.33603038 269.10128212 171.32659721 C271.18921733 171.31498477 273.27472597 171.33407187 275.36247253 171.36076355 C276.53038424 171.36352893 277.69829596 171.36629431 278.90159893 171.36914349 C282.9479086 172.19300094 284.4566967 173.81372274 287 177 C287.57210224 180.50412619 287.44040698 182.22404484 285.6875 185.3125 C283.2871088 187.7128912 281.41021268 187.98686005 278.06630611 188.09397221 C276.8579186 188.07964366 275.64953108 188.06531511 274.40452576 188.05055237 C273.73114845 188.04420129 273.05777114 188.03785022 272.36398846 188.03130668 C270.88685146 188.01684146 269.40973591 188.00004797 267.93264771 187.98124886 C264.68698256 187.94009498 261.44123949 187.91030498 258.19545949 187.87979782 C256.44721931 187.86329206 254.69898445 187.84621498 252.950755 187.82860959 C241.73054649 187.71773644 230.50998387 187.68709116 219.28932273 187.65329087 C208.36287941 187.61993123 197.43809323 187.56110374 186.51245117 187.4206543 C177.83408211 187.30923914 169.15745105 187.25451295 160.4783445 187.26622146 C155.88661892 187.27034314 151.29900574 187.24629061 146.70812798 187.15368843 C128.99248272 185.9170228 128.99248272 185.9170228 112.55836868 190.54258347 C108.96945892 194.19484117 107.32069485 198.14516208 105.82670784 202.96798515 C104.35061144 206.59617113 101.65831214 209.18718 98.9375 211.9375 C98.40211137 212.49246627 97.86672274 213.04743254 97.31511021 213.61921597 C96.35237183 214.61305452 95.38306307 215.60056496 94.40771484 216.58203125 C93.09569059 217.90361239 91.80662427 219.24787635 90.51953125 220.59375 C84.66252351 226.642295 84.66252351 226.642295 81.98144531 228.08984375 C79.49286428 229.53903075 77.81871892 230.75249246 76 233 C74.95662447 237.71374046 75.10816346 242.31723053 75.25 247.125 C75.29337147 249.64819914 75.32014747 252.17175324 75.328125 254.6953125 C75.3580957 255.80922363 75.38806641 256.92313477 75.41894531 258.07080078 C75 261 75 261 73.45996094 263.36083984 C70.12891272 265.58043668 67.1851252 265.57538186 63.3125 265.53125 C62.57298096 265.5350769 61.83346191 265.53890381 61.0715332 265.54284668 C59.5115421 265.54556271 57.95150522 265.53822292 56.39160156 265.52148438 C54.00742814 265.50006673 51.62626751 265.52129263 49.2421875 265.546875 C47.7239517 265.54423166 46.20571777 265.53910656 44.6875 265.53125 C43.97698486 265.53934692 43.26646973 265.54744385 42.53442383 265.55578613 C39.10134568 265.4909368 37.31264561 265.24673244 34.58203125 263.09179688 C31.91337807 259.56324433 31.90463946 257.38658501 32 253 C30.93265625 253.2165625 29.8653125 253.433125 28.765625 253.65625 C17.07371093 255.88776411 5.88238138 256.33488966 -6 256 C-6 255.67 -6 255.34 -6 255 C-4.90945312 254.91363281 -3.81890625 254.82726562 -2.6953125 254.73828125 C29.00987683 251.91862171 56.62390747 238.66174477 79 216 C80.10021484 214.89785156 80.10021484 214.89785156 81.22265625 213.7734375 C103.59234842 190.02509631 114.97529392 156.29434217 114.18359375 123.9921875 C112.56234109 88.73856589 97.59103737 56.34397224 71.5703125 32.38378906 C51.28262797 14.50589791 26.60678723 4.66148448 0 1 C0 0.67 0 0.34 0 0 Z " fill="#C5E1FC" transform="translate(150,16)"/>
<path d="M0 0 C9.34638554 0.90448892 18.66413841 1.96268205 28 3 C28 76.92 28 150.84 28 227 C6 227 6 227 1 223 C-0.3051722 219.0844834 -0.13428363 215.3678903 -0.12025452 211.28718567 C-0.12110894 210.38624088 -0.12196337 209.48529608 -0.12284368 208.55704993 C-0.12449605 205.52605042 -0.11898104 202.49510577 -0.11352539 199.46411133 C-0.11324344 197.29620871 -0.11340141 195.128306 -0.1139679 192.96040344 C-0.11425557 187.0640666 -0.10836373 181.16774998 -0.10139394 175.27141786 C-0.09515536 169.11345665 -0.0945562 162.95549501 -0.09336853 156.79753113 C-0.09025671 145.13160692 -0.08204532 133.46569205 -0.07201904 121.79977196 C-0.06085329 108.52063315 -0.05534629 95.24149495 -0.05032361 81.9623524 C-0.03986259 54.64156308 -0.02226602 27.32078206 0 0 Z " fill="#D1D1D6" transform="translate(123,269)"/>
<path d="M0 0 C0.73573242 -0.00241196 1.47146484 -0.00482391 2.22949219 -0.00730896 C3.77935191 -0.0063329 5.32924753 0.00700352 6.87890625 0.03198242 C9.24339913 0.06631042 11.60415414 0.0526294 13.96875 0.03320312 C15.47918248 0.04010204 16.98960537 0.04977486 18.5 0.0625 C19.5533252 0.0550602 19.5533252 0.0550602 20.62792969 0.04747009 C25.42099777 0.16175168 27.89712263 1.21616305 31.25 4.62890625 C32.47265625 7.265625 32.47265625 7.265625 33.3125 10.31640625 C33.63476562 11.47140625 33.95703125 12.62640625 34.2890625 13.81640625 C35.46600534 18.48590304 36.58469669 23.16622666 37.65274048 27.86180115 C38.81348868 32.92505219 40.13727187 37.91965934 41.5625 42.9140625 C44.35876158 52.85056249 46.84679232 62.85619945 49.3125 72.87890625 C50.15461627 76.30151429 50.99901187 79.72353565 51.84765625 83.14453125 C52.05059296 83.96263275 52.25352966 84.78073425 52.46261597 85.62362671 C53.97383144 91.65820199 55.63994481 97.6298228 57.42651367 103.58935547 C58.76622679 108.53433866 59.54436616 113.55948417 60.25 118.62890625 C61.260625 118.71140625 62.27125 118.79390625 63.3125 118.87890625 C68.10799604 119.55980832 72.44228398 121.58778969 75.70410156 125.27075195 C77.40647162 127.0799184 77.40647162 127.0799184 81.234375 126.484375 C86.73995799 125.66120369 92.11369636 124.32928008 97.5 122.94140625 C98.54704102 122.67593994 99.59408203 122.41047363 100.67285156 122.13696289 C107.48228813 120.39244324 114.2489421 118.52353047 121 116.56640625 C128.00391459 114.54339372 135.01245256 112.54830328 142.0625 110.69140625 C142.86848633 110.46767334 143.67447266 110.24394043 144.50488281 110.01342773 C151.97968614 108.08826595 157.94506041 108.65251786 165.0625 111.94140625 C166.43341797 112.55435547 166.43341797 112.55435547 167.83203125 113.1796875 C170.44321442 114.74471005 171.74669617 115.99311354 173.25 118.62890625 C173.18480059 122.34527251 173.04890124 124.67637016 170.625 127.56640625 C167.32638518 129.04210235 164.83083029 128.94301417 161.25 128.62890625 C159.58333333 127.96223958 157.91666667 127.29557292 156.25 126.62890625 C149.80912813 126.1249123 144.07908732 127.69385909 137.875 129.31640625 C136.27108398 129.72632813 136.27108398 129.72632813 134.63476562 130.14453125 C127.97709305 131.86393017 121.375559 133.72371706 114.79711914 135.72216797 C108.35156905 137.65591091 101.83973225 139.30767161 95.3125 140.94140625 C94.2503125 141.20824219 93.188125 141.47507813 92.09375 141.75 C84.50890214 143.62890625 84.50890214 143.62890625 82.25 143.62890625 C82.12044922 144.48162109 82.12044922 144.48162109 81.98828125 145.3515625 C80.65552648 152.67560017 78.18990584 157.31451229 72.3125 161.94140625 C65.73711734 165.56457629 59.70234304 166.62255199 52.25 165.62890625 C45.95003456 163.42391835 40.75095441 159.33374016 37.25 153.62890625 C34.57223194 146.95295346 33.52857497 138.98390584 36.23046875 132.1484375 C38.09735277 129.0867477 39.87128001 126.92994009 42.6875 124.69140625 C43.203125 124.01078125 43.71875 123.33015625 44.25 122.62890625 C43.68057368 119.57862796 43.00928122 116.63299516 42.25 113.62890625 C41.79241924 111.68923795 41.33678013 109.74911086 40.8828125 107.80859375 C38.4883824 97.76671987 36.07599563 87.73948934 33.3671875 77.77734375 C31.53070063 71.00680586 29.79773508 64.20856071 28.04296875 57.41650391 C26.45471569 51.27054395 24.85760073 45.1271649 23.2421875 38.98828125 C22.91903564 37.75561523 22.59588379 36.52294922 22.26293945 35.25292969 C21.63935884 32.87521827 21.01298748 30.49823664 20.38354492 28.12207031 C20.10357666 27.05182617 19.8236084 25.98158203 19.53515625 24.87890625 C19.28644775 23.9353125 19.03773926 22.99171875 18.78149414 22.01953125 C18.25 19.62890625 18.25 19.62890625 18.25 16.62890625 C17.05455566 16.66032715 17.05455566 16.66032715 15.83496094 16.69238281 C12.22343566 16.77553947 8.61211176 16.82756659 5 16.87890625 C3.11861328 16.92917969 3.11861328 16.92917969 1.19921875 16.98046875 C-0.60869141 16.99980469 -0.60869141 16.99980469 -2.453125 17.01953125 C-3.56333008 17.04047852 -4.67353516 17.06142578 -5.81738281 17.08300781 C-9.43399367 16.52299314 -10.57836041 15.52657882 -12.75 12.62890625 C-13.3125 9.19140625 -13.3125 9.19140625 -12.75 5.62890625 C-9.02046953 0.74899323 -5.89856629 -0.11136792 0 0 Z " fill="#98A6B4" transform="translate(73.75,80.37109375)"/>
<path d="M0 0 C2.64091053 2.75831935 3.57505715 5.36873385 4.4296875 9.04296875 C4.6654248 10.02652344 4.90116211 11.01007813 5.14404297 12.0234375 C5.38525879 13.06757813 5.62647461 14.11171875 5.875 15.1875 C7.82732066 23.37616104 9.88068991 31.47449456 12.52685547 39.46948242 C14.01824237 44.20454332 14.42281509 48.09121997 14 53 C12.42256866 55.85497079 10.79396722 56.07086169 7.68359375 57.140625 C6.27095474 57.52069581 4.85530004 57.88965875 3.4375 58.25 C2.66752686 58.45471924 1.89755371 58.65943848 1.10424805 58.87036133 C-0.62312528 59.32920803 -2.35163793 59.78377951 -4.08105469 60.23486328 C-8.46568502 61.38419679 -12.84053533 62.56934472 -17.21655273 63.75097656 C-21.57273691 64.9263527 -25.93131657 66.09274992 -30.28955078 67.26049805 C-32.54727334 67.8764809 -34.79190637 68.52141455 -37.03515625 69.1875 C-40.52593459 70.14412964 -43.39799029 70.34634709 -47 70 C-50.325277 67.62450909 -50.90580484 64.61485524 -51.921875 60.78125 C-52.26025391 59.52828125 -52.59863281 58.2753125 -52.94726562 56.984375 C-53.12008057 56.32824219 -53.29289551 55.67210937 -53.47094727 54.99609375 C-53.98936999 53.04010659 -54.52532326 51.08990924 -55.06835938 49.140625 C-55.96632794 45.91618503 -56.84728783 42.68748978 -57.71972656 39.45605469 C-58.07735045 38.13686382 -58.43809877 36.8185165 -58.80175781 35.50097656 C-59.33862384 33.55471801 -59.86475981 31.60550968 -60.390625 29.65625 C-60.70032227 28.51994141 -61.01001953 27.38363281 -61.32910156 26.21289062 C-61.99982078 23.00085826 -62.27062805 20.26862448 -62 17 C-58.39213967 12.94115713 -54.1396239 12.01444493 -49 11 C-47.46537667 10.66890984 -45.93152136 10.33424066 -44.3984375 9.99609375 C-43.6465918 9.83093262 -42.89474609 9.66577148 -42.12011719 9.49560547 C-39.24109363 8.82259559 -36.44021631 7.96351396 -33.625 7.0625 C-28.17601112 5.33778851 -22.70145909 3.75163096 -17.1875 2.25 C-16.39875488 2.02707275 -15.61000977 1.80414551 -14.79736328 1.57446289 C-9.72384862 0.2138628 -5.2537729 -0.56797545 0 0 Z " fill="#E2A770" transform="translate(201,115)"/>
<path d="M0 0 C0.68678109 -0.00638882 1.37356218 -0.01277764 2.08115482 -0.01936007 C4.37623424 -0.03458799 6.66958107 -0.0141662 8.96459961 0.00622559 C10.61238171 0.00272369 12.26016042 -0.00293567 13.90792847 -0.0105896 C18.37912449 -0.02483748 22.84970552 -0.00777623 27.32084274 0.01569557 C32.00035116 0.03580266 36.679834 0.02992509 41.359375 0.02758789 C49.21779523 0.02764146 57.07597504 0.04739928 64.93432617 0.07946777 C74.01903374 0.11636065 83.10342634 0.12514334 92.18819904 0.11817026 C100.92823349 0.11186448 109.66815995 0.12262094 118.40817261 0.14213562 C122.12736551 0.15030929 125.84650321 0.15301923 129.56570435 0.15144348 C133.94557206 0.15056438 138.32514057 0.16478766 142.70492935 0.19067001 C144.31215082 0.19783067 145.91940413 0.19991591 147.52663803 0.19655228 C149.72104526 0.19283587 151.91458008 0.20758934 154.10888672 0.22705078 C155.33667343 0.2307795 156.56446014 0.23450821 157.82945251 0.23834991 C161.34709419 0.65622517 163.24098143 1.50601341 166.05444336 3.62145996 C167.49875191 6.51007705 167.43132842 8.41793697 167.05444336 11.62145996 C164.47224511 14.91209589 162.9693729 16.44381464 158.81383514 17.25066566 C156.96109356 17.25349336 156.96109356 17.25349336 155.07092285 17.25637817 C154.38005821 17.26417813 153.68919356 17.27197808 152.97739363 17.2800144 C150.66854573 17.29991631 148.36134956 17.28417903 146.05249023 17.26843262 C144.39485209 17.27520962 142.73722147 17.28411322 141.0796051 17.29498291 C136.58158718 17.31777325 132.0841428 17.30894115 127.58611488 17.29308748 C122.87856121 17.28042707 118.17105658 17.29216899 113.46350098 17.30001831 C105.55801579 17.30911447 97.65276417 17.29712787 89.74731445 17.27331543 C80.60796818 17.24610418 71.46917961 17.25491837 62.32984686 17.28244746 C54.48255054 17.30513851 46.6354221 17.30833864 38.78810358 17.29525411 C34.10143549 17.28745956 29.41502953 17.28641806 24.7283783 17.30293655 C20.32210629 17.31738205 15.91655316 17.30735855 11.51035881 17.27846527 C9.89345938 17.27185482 8.27649944 17.27375151 6.6596241 17.28477859 C4.45158794 17.29844884 2.24585339 17.28130554 0.03796387 17.25637817 C-1.19719719 17.25449305 -2.43235825 17.25260792 -3.70494843 17.25066566 C-7.85679856 16.44453064 -9.34817134 14.89237558 -11.94555664 11.62145996 C-12.57055664 8.62145996 -12.57055664 8.62145996 -11.94555664 5.62145996 C-8.23846933 0.95686541 -5.89571216 -0.0034214 0 0 Z " fill="#A79BA7" transform="translate(269.945556640625,267.3785400390625)"/>
<path d="M0 0 C0.69888289 -0.00623996 1.39776578 -0.01247993 2.11782694 -0.01890898 C4.45955046 -0.03486333 6.80023655 -0.02222614 9.14196777 -0.00964355 C10.82078153 -0.01506362 12.49959053 -0.02218564 14.1783905 -0.03088379 C18.73831255 -0.04913389 23.29787299 -0.04204272 27.85780144 -0.02936745 C32.62721617 -0.01924849 37.3965997 -0.02863005 42.16601562 -0.03491211 C50.17579718 -0.04219174 58.18543126 -0.03259254 66.19519043 -0.0135498 C75.4588657 0.00821955 84.72218884 0.0011684 93.98585558 -0.02085543 C101.93585747 -0.03900045 109.88575328 -0.04157215 117.83576918 -0.03110075 C122.58554323 -0.02486087 127.33515171 -0.02404375 132.08491516 -0.0372467 C136.55016903 -0.04879154 141.0149684 -0.04080467 145.48017311 -0.01766968 C147.12007199 -0.01237525 148.76000905 -0.01390892 150.39989281 -0.02272034 C152.63649836 -0.03363113 154.87164223 -0.01996866 157.1081543 0 C158.36028465 0.0015081 159.61241501 0.0030162 160.90248871 0.00457001 C164.63488783 0.60070034 165.83388738 1.49646348 168.05407715 4.50793457 C168.53784648 8.37808922 168.349597 11.29420678 166.05407715 14.50793457 C162.53290675 16.83419806 159.41667647 16.7639715 155.26673889 16.77536011 C154.24397422 16.78215678 154.24397422 16.78215678 153.20054764 16.78909075 C150.91671051 16.8017471 148.63311147 16.80011363 146.34924316 16.79846191 C144.71146335 16.80444634 143.07368636 16.81125169 141.43591309 16.81881714 C136.98759392 16.83649156 132.53935168 16.84117308 128.0910008 16.84244871 C124.3781827 16.84434761 120.66538253 16.85170491 116.95257133 16.8587929 C108.19399828 16.87507939 99.43546634 16.87996156 90.67687988 16.87854004 C81.63932389 16.87733802 72.60200648 16.89845122 63.56451088 16.93002737 C55.80644308 16.95616823 48.04845331 16.96690828 40.29034179 16.96562922 C35.65620439 16.96511901 31.02227907 16.97083499 26.3881855 16.99198532 C22.03048447 17.0113313 17.67319866 17.01151732 13.31548309 16.99695206 C11.71630434 16.99485842 10.11709985 16.99959783 8.51796532 17.01167297 C6.33428699 17.02709402 4.15204608 17.01784023 1.96839905 17.00241089 C0.13583227 17.00404519 0.13583227 17.00404519 -1.73375607 17.00571251 C-5.56212091 16.41244457 -7.2103686 15.19692839 -9.94592285 12.50793457 C-11.36634106 9.66709816 -11.26044557 7.65316179 -10.94592285 4.50793457 C-7.77868162 0.18568816 -5.19855944 0.0062613 0 0 Z " fill="#A89CA8" transform="translate(268.9459228515625,428.4920654296875)"/>
<path d="M0 0 C1.0242696 -0.01169993 1.0242696 -0.01169993 2.06923151 -0.02363622 C4.3450112 -0.04349442 6.619107 -0.02781824 8.89489746 -0.01205444 C10.53135653 -0.0188334 12.16780797 -0.0277381 13.804245 -0.03860474 C18.24029227 -0.06137188 22.67575722 -0.05257259 27.1118145 -0.03670931 C31.75750149 -0.02403686 36.40313914 -0.03579416 41.04882812 -0.04364014 C48.84998512 -0.05273279 56.65090533 -0.04075891 64.45202637 -0.01693726 C73.46697609 0.01027333 82.48136039 0.0014589 91.49629641 -0.02606928 C99.24086991 -0.04877033 106.98527334 -0.05195558 114.72986937 -0.03887594 C119.35339849 -0.03108689 123.97666197 -0.03002476 128.60017395 -0.04655838 C132.94736975 -0.06101844 137.29383768 -0.05095381 141.64095497 -0.0220871 C143.23485926 -0.01548442 144.82882497 -0.01736004 146.4227047 -0.02840042 C148.60188014 -0.04210158 150.77873544 -0.0248904 152.95776367 0 C154.17595543 0.00188513 155.39414719 0.00377026 156.64925385 0.00571251 C161.13399013 0.85320107 162.79640354 2.39421212 165.97888184 5.63491821 C166.76816451 9.42347506 166.37394381 10.98314896 164.37393951 14.28273582 C161.18054869 17.41895994 159.46260663 17.26316743 155.03295898 17.26983643 C153.98463465 17.28153636 153.98463465 17.28153636 152.91513205 17.29347265 C150.57321555 17.31341724 148.23291975 17.29762042 145.89099121 17.28189087 C144.21217398 17.28866597 142.53336418 17.2975685 140.85456848 17.30844116 C136.29457984 17.33125412 131.73515619 17.32239007 127.17515755 17.30654573 C122.40573719 17.29389703 117.63636559 17.30562398 112.86694336 17.31347656 C104.85712996 17.32257614 96.84754698 17.31057716 88.83776855 17.28677368 C79.57402567 17.25956179 70.31083296 17.26837573 61.0471034 17.29590571 C53.09708426 17.31858703 45.14723085 17.32180166 37.19718981 17.30871236 C32.44738272 17.30091246 27.69783434 17.29989101 22.94804382 17.31639481 C18.48269553 17.33082616 14.01805735 17.3208427 9.55278587 17.29192352 C7.91289131 17.2853055 6.27293711 17.28722266 4.63306618 17.29823685 C2.39616922 17.31187712 0.16155558 17.29479991 -2.07519531 17.26983643 C-3.32732567 17.2679513 -4.57945602 17.26606617 -5.86952972 17.26412392 C-9.02111816 16.63491821 -9.02111816 16.63491821 -11.41617584 14.28273582 C-13.41618014 10.98314896 -13.81040084 9.42347506 -13.02111816 5.63491821 C-8.73854177 1.27398622 -6.26905682 0.00970124 0 0 Z " fill="#A89DA8" transform="translate(271.0211181640625,347.3650817871094)"/>
<path d="M0 0 C20.77499596 -0.11571548 41.54991437 -0.20495784 62.32516766 -0.25906086 C71.9713659 -0.28484891 81.61736031 -0.32001091 91.26342773 -0.37719727 C99.67038143 -0.42701384 108.07718751 -0.45928664 116.4842847 -0.47044247 C120.93637635 -0.47696422 125.38804569 -0.49230441 129.84000206 -0.52865028 C134.03023559 -0.56258236 138.21987277 -0.57305874 142.41023064 -0.56553841 C143.94815563 -0.56691422 145.4861005 -0.57686384 147.02390671 -0.59602737 C149.12483928 -0.62092464 151.22352359 -0.61492087 153.32450867 -0.60127258 C154.49979472 -0.60588155 155.67508078 -0.61049051 156.88598156 -0.61523914 C160.95266219 0.18821824 162.45055114 1.79957722 165 5 C165.57210224 8.50412619 165.44040698 10.22404484 163.6875 13.3125 C161.28355886 15.71644114 159.38560878 15.98397897 156.03837299 16.12304783 C154.20630944 16.12166514 154.20630944 16.12166514 152.3372345 16.12025452 C151.65680153 16.12110894 150.97636856 16.12196337 150.27531642 16.12284368 C147.9905652 16.12449353 145.70588706 16.1189852 143.42114258 16.11352539 C141.78525291 16.11324339 140.14936311 16.11340151 138.51347351 16.1139679 C134.06750092 16.11425535 129.62155519 16.10836694 125.17558885 16.10139394 C120.53109768 16.09515183 115.88660592 16.09455592 111.24211121 16.09336853 C102.44487888 16.09025775 93.64765896 16.08204776 84.8504321 16.07201904 C74.83604448 16.06085006 64.82165627 16.05534547 54.80726397 16.05032361 C34.20483554 16.03986495 13.60241898 16.02206946 -7 16 C-4.69 10.72 -2.38 5.44 0 0 Z " fill="#A79BA7" transform="translate(272,188)"/>
<path d="M0 0 C20.53151424 -0.0933913 41.06299351 -0.16395367 61.59467697 -0.20724869 C71.12764328 -0.22788457 80.66047771 -0.25602472 90.19335938 -0.30175781 C98.5010535 -0.34159423 106.80865213 -0.36742535 115.1164391 -0.37635398 C119.51645429 -0.38157417 123.91619624 -0.39386462 128.31612396 -0.42292023 C132.45623165 -0.45003896 136.59595314 -0.45845225 140.7361412 -0.45243073 C142.25673648 -0.45353256 143.77734445 -0.46150777 145.29786301 -0.4768219 C147.37261528 -0.49669578 149.44590552 -0.49195051 151.52069092 -0.48101807 C152.68215008 -0.48470524 153.84360924 -0.48839241 155.04026413 -0.49219131 C158.65620067 0.10912334 159.8345593 1.08572194 162 4 C162.5 7.5 162.5 7.5 162 11 C160.13291495 13.36497439 158.67938569 14.66030715 156 16 C153.99813344 16.0940196 151.99305568 16.12190532 149.98898315 16.12025452 C148.70728241 16.12162918 147.42558167 16.12300385 146.1050415 16.12442017 C144.67663551 16.12088078 143.24822975 16.11724596 141.81982422 16.11352539 C140.32201133 16.11324345 138.82419831 16.11340139 137.3263855 16.1139679 C133.25224167 16.11425559 129.17812709 16.10836338 125.10399008 16.10139394 C120.84920492 16.09515574 116.59441915 16.09455623 112.33963013 16.09336853 C104.27901608 16.0902566 96.21841555 16.08204505 88.15780747 16.07201904 C78.98260498 16.06085364 69.80740186 16.05534637 60.63219428 16.05032361 C41.75478852 16.03986233 22.87739534 16.02226554 4 16 C2.42421759 10.70987333 1.15058556 5.39795989 0 0 Z " fill="#A89CA8" transform="translate(275,108)"/>
<path d="M0 0 C2.23078758 6.48685628 4.20272472 13.02303559 6.0625 19.625 C6.31837891 20.52734375 6.57425781 21.4296875 6.83789062 22.359375 C7.33396141 24.10901284 7.82880835 25.85899826 8.32226562 27.609375 C8.92483431 29.73486223 9.54123137 31.85580199 10.16015625 33.9765625 C10.97293191 36.90255488 11.49972334 39.00165995 11 42 C8.24222403 44.48129546 5.78456898 45.55001367 2.2109375 46.4296875 C1.27749512 46.6654248 0.34405273 46.90116211 -0.61767578 47.14404297 C-1.61009277 47.38525879 -2.60250977 47.62647461 -3.625 47.875 C-5.69828003 48.39438499 -7.77119292 48.91523761 -9.84375 49.4375 C-10.87757813 49.69660156 -11.91140625 49.95570312 -12.9765625 50.22265625 C-18.12413677 51.54612819 -23.23055891 53.01802975 -28.32666016 54.52685547 C-35.32521877 56.53617804 -35.32521877 56.53617804 -39 56 C-42.60715974 53.46256594 -43.22200006 49.56412292 -44.26171875 45.515625 C-44.45723831 44.78180603 -44.65275787 44.04798706 -44.85420227 43.29193115 C-45.26499275 41.73988438 -45.67065322 40.18647199 -46.0715332 38.63183594 C-46.68263672 36.26880546 -47.31363487 33.91176432 -47.94726562 31.5546875 C-48.34495896 30.04198399 -48.74148117 28.52897201 -49.13671875 27.015625 C-49.3241716 26.31745667 -49.51162445 25.61928833 -49.70475769 24.89996338 C-50.83948545 20.43772629 -51.17698059 16.55771391 -51 12 C-45.04330638 8.82488553 -38.98071506 7.2604715 -32.48583984 5.6328125 C-29.61601131 4.90224919 -26.75580606 4.13836002 -23.89453125 3.375 C-21.74236957 2.81180381 -19.59002546 2.24930426 -17.4375 1.6875 C-16.40254395 1.40865967 -15.36758789 1.12981934 -14.30126953 0.8425293 C-5.15272157 -1.50618015 -5.15272157 -1.50618015 0 0 Z " fill="#E2A770" transform="translate(172,52)"/>
<path d="M0 0 C1.13547272 -0.0071553 2.27094543 -0.01431061 3.44082642 -0.02168274 C7.19330091 -0.0385887 10.94458409 -0.01915538 14.69702148 0.00219727 C17.30346272 0.00136881 19.9099039 -0.00108968 22.51634216 -0.00511169 C27.97799398 -0.00962912 33.43930292 0.00621645 38.90087891 0.03417969 C45.2125566 0.06624654 51.52361653 0.06620882 57.83533818 0.04896492 C63.91214948 0.03309542 69.98869825 0.03993243 76.06550407 0.05690193 C78.64953034 0.06209149 81.23357439 0.06159262 83.81759834 0.05535698 C87.42566576 0.04991835 91.03267777 0.07023809 94.640625 0.09765625 C96.24832512 0.08786743 96.24832512 0.08786743 97.88850403 0.07788086 C105.10127629 0.17127245 105.10127629 0.17127245 108.38780212 2.48085022 C110.20528173 5.33799605 110.75561523 7.23336286 110.75561523 10.63110352 C108.98522074 13.37826738 107.6926968 15.16256273 104.75561523 16.63110352 C103.22131271 16.7339645 101.68265657 16.77488828 100.14494324 16.78500366 C99.17337784 16.79360413 98.20181244 16.80220459 97.20080566 16.81106567 C95.59634583 16.8174556 95.59634583 16.8174556 93.95947266 16.82397461 C92.83579788 16.8321521 91.71212311 16.84032959 90.55439758 16.84875488 C86.82329854 16.87363671 83.09223757 16.89013112 79.36108398 16.90454102 C78.08938166 16.90986469 76.81767933 16.91518837 75.50744057 16.92067337 C70.16391507 16.94190787 64.82040296 16.96103799 59.47684765 16.97229576 C51.81954144 16.9885344 44.1627427 17.02170981 36.50562781 17.07869661 C30.4721424 17.12206839 24.43888803 17.13804095 18.4052372 17.14442825 C15.83874205 17.15115801 13.27225478 17.16642441 10.70586205 17.19031906 C7.11682662 17.22183132 3.52907805 17.22202765 -0.06005859 17.21459961 C-1.65540939 17.23920761 -1.65540939 17.23920761 -3.2829895 17.26431274 C-10.47467655 17.20326948 -10.47467655 17.20326948 -14.40434265 14.28213501 C-16.24438477 11.63110352 -16.24438477 11.63110352 -16.86938477 8.63110352 C-14.96989334 -0.48645534 -7.66993294 -0.08382914 0 0 Z " fill="#A79BA7" transform="translate(274.244384765625,315.368896484375)"/>
<path d="M0 0 C1.12411285 -0.0071553 2.24822571 -0.01431061 3.40640259 -0.02168274 C7.12160905 -0.03858918 10.83561224 -0.01915392 14.55078125 0.00219727 C17.13240662 0.00136876 19.71403193 -0.00108994 22.2956543 -0.00511169 C27.70606741 -0.00797107 33.11603521 0.00621599 38.52636719 0.03417969 C44.77554288 0.0662306 51.02409447 0.0662151 57.27331448 0.04896492 C63.29246104 0.03308393 69.31131775 0.03994109 75.33047485 0.05690193 C77.88855477 0.06208776 80.44665266 0.06159712 83.00473022 0.05535698 C86.57906846 0.04991105 90.15234517 0.07026227 93.7265625 0.09765625 C95.3148436 0.08786743 95.3148436 0.08786743 96.93521118 0.07788086 C101.38836192 0.13595664 104.10331501 0.18193184 107.99291992 2.48085022 C110.43078817 5.28353553 110.93904236 6.9188092 110.86328125 10.63110352 C109.09288676 13.37826738 107.80036281 15.16256273 104.86328125 16.63110352 C103.32897873 16.7339645 101.79032259 16.77488828 100.25260925 16.78500366 C99.28104385 16.79360413 98.30947845 16.80220459 97.30847168 16.81106567 C95.70401184 16.8174556 95.70401184 16.8174556 94.06713867 16.82397461 C92.9434639 16.8321521 91.81978912 16.84032959 90.6620636 16.84875488 C86.93096455 16.87363671 83.19990359 16.89013112 79.46875 16.90454102 C78.19704767 16.90986469 76.92534534 16.91518837 75.61510658 16.92067337 C70.27158109 16.94190787 64.92806897 16.96103799 59.58451366 16.97229576 C51.92720745 16.9885344 44.27040872 17.02170981 36.61329383 17.07869661 C30.57980842 17.12206839 24.54655405 17.13804095 18.51290321 17.14442825 C15.94640807 17.15115801 13.3799208 17.16642441 10.81352806 17.19031906 C7.22449263 17.22183132 3.63674407 17.22202765 0.04760742 17.21459961 C-1.54774338 17.23920761 -1.54774338 17.23920761 -3.17532349 17.26431274 C-10.36701053 17.20326948 -10.36701053 17.20326948 -14.29667664 14.28213501 C-16.13671875 11.63110352 -16.13671875 11.63110352 -16.76171875 8.63110352 C-14.87128616 -0.44297293 -7.6418934 -0.08438419 0 0 Z " fill="#A79BA7" transform="translate(274.13671875,395.368896484375)"/>
<path d="M0 0 C1.14508026 -0.00700928 2.29016052 -0.01401855 3.46994019 -0.02124023 C7.26015373 -0.03886486 11.04962243 -0.0271808 14.83984375 -0.01367188 C17.47013492 -0.01636548 20.10042513 -0.0202468 22.73071289 -0.02526855 C28.24536225 -0.0325436 33.75979726 -0.02296125 39.27441406 -0.00390625 C45.64797042 0.01786253 52.02101495 0.01081103 58.39455891 -0.01121187 C64.52847897 -0.03155758 70.66217229 -0.02939587 76.79611206 -0.01768494 C79.40526399 -0.01501298 82.01442895 -0.01830379 84.62356567 -0.02760315 C88.26762701 -0.03774021 91.91069994 -0.02230561 95.5546875 0 C96.63740936 -0.00809692 97.72013123 -0.01619385 98.83566284 -0.02453613 C106.13554563 0.05841624 106.13554563 0.05841624 109.44335938 2.42492676 C110.87087697 4.66430579 111.34499786 5.8786744 111.33984375 8.51757812 C111.36175781 9.17757812 111.38367188 9.83757812 111.40625 10.51757812 C110.36379306 13.83272069 108.74276227 14.72256536 105.77734375 16.51757812 C102.09872154 17.11825034 98.45293707 17.06386004 94.73242188 17.03515625 C93.61806259 17.04216553 92.50370331 17.0491748 91.35557556 17.05639648 C87.67299462 17.07399778 83.99118248 17.06234534 80.30859375 17.04882812 C77.74938815 17.0515224 75.19018354 17.05540429 72.63098145 17.0604248 C67.2677135 17.06632279 61.90472095 17.05812869 56.54150391 17.0390625 C50.34687325 17.01729451 44.15276924 17.02434631 37.95815134 17.04636812 C31.99137913 17.06672839 26.02477012 17.06454657 20.05796814 17.05284119 C17.52221096 17.05017159 14.98644035 17.05345177 12.45069885 17.0627594 C8.90752486 17.0729105 5.36536409 17.0574422 1.82226562 17.03515625 C0.7727623 17.04325317 -0.27674103 17.0513501 -1.35804749 17.05969238 C-8.46964899 16.97676473 -8.46964899 16.97676473 -12.35046387 14.61022949 C-14.62123372 12.07206638 -15.16557055 11.04276657 -15.53515625 7.64257812 C-15.22265625 4.51757812 -15.22265625 4.51757812 -13.90454102 2.35461426 C-9.57644705 -0.61004146 -5.12480946 -0.03832489 0 0 Z " fill="#A89DA8" transform="translate(273.22265625,235.482421875)"/>
<path d="M0 0 C15.03809954 -0.09346901 30.07617656 -0.16399173 45.11450481 -0.20724869 C52.09718731 -0.22786815 59.07968926 -0.25597664 66.06225586 -0.30175781 C72.79902954 -0.34590636 79.53557675 -0.36912843 86.27250099 -0.37950897 C88.84457161 -0.38690794 91.4166318 -0.40135608 93.98862267 -0.42292023 C97.58728729 -0.45189617 101.18517331 -0.45595827 104.78393555 -0.45410156 C105.85064484 -0.46848267 106.91735413 -0.48286377 108.01638794 -0.49768066 C112.493749 -0.47263326 115.22283198 -0.45527922 119.14241028 1.84088135 C121.51782712 4.6018822 121.92455499 6.37863971 122 10 C120.87981101 13.36056696 120.05465901 13.96356066 117 16 C114.91688156 16.2796154 114.91688156 16.2796154 112.47235107 16.32125854 C111.5443721 16.34134979 110.61639313 16.36144104 109.66029358 16.38214111 C108.64414474 16.3938031 107.62799591 16.40546509 106.58105469 16.41748047 C105.50921432 16.43704803 104.43737396 16.4566156 103.33305359 16.47677612 C99.77937805 16.53669619 96.22585294 16.57945535 92.671875 16.6171875 C91.45874886 16.63033115 90.24562271 16.64347481 88.99573517 16.65701675 C82.57516646 16.72220737 76.15466423 16.77110931 69.73388672 16.81005859 C64.41747647 16.8457037 59.10318453 16.91536179 53.78759766 17.01513672 C47.37127725 17.13543626 40.95692236 17.19699251 34.53952789 17.21640396 C32.09450663 17.23353404 29.6495394 17.27122441 27.20516205 17.3298912 C8.60485945 17.75229517 8.60485945 17.75229517 4.25520325 14.82627106 C1.25379681 11.68919179 -0.20706221 8.2109416 -1 4 C-0.53497696 1.81425285 -0.53497696 1.81425285 0 0 Z " fill="#A79BA7" transform="translate(263,75)"/>
<path d="M0 0 C4.25357018 2.68536336 7.7613309 5.50524165 11.34692383 9.07226562 C11.84362579 9.56385666 12.34032776 10.05544769 12.8520813 10.56193542 C14.47554951 12.17161869 16.09159935 13.78850473 17.70703125 15.40625 C18.83927439 16.53460235 19.97173949 17.66273199 21.10441589 18.79064941 C23.46877507 21.14757197 25.82925415 23.5082998 28.18725586 25.87158203 C31.20960412 28.89974564 34.24321499 31.91634257 37.28001881 34.93000031 C39.61779043 37.25305196 41.94861111 39.5829808 44.27747154 41.91496277 C45.39349525 43.03047319 46.51188397 44.14362272 47.63266945 45.25434875 C49.19572712 46.80508251 50.74896044 48.36504108 52.30004883 49.92773438 C53.18574051 50.81279663 54.07143219 51.69785889 54.98396301 52.60974121 C56.89807945 54.8791607 57.64466667 56.1005515 58 59 C50.22215005 59.07593214 42.44439532 59.12855012 34.66625977 59.16479492 C32.01908801 59.1799012 29.37194136 59.2003873 26.72485352 59.22631836 C22.92457899 59.26261991 19.12463474 59.27970803 15.32421875 59.29296875 C13.54285774 59.31619453 13.54285774 59.31619453 11.72550964 59.33988953 C10.62459488 59.34011612 9.52368011 59.34034271 8.3894043 59.34057617 C6.93379341 59.35056892 6.93379341 59.35056892 5.44877625 59.36076355 C3 59 3 59 1.18444824 57.82128906 C-0.45568602 55.29930584 -0.36079285 53.51760679 -0.34057617 50.51879883 C-0.34034958 49.39786331 -0.34012299 48.2769278 -0.33988953 47.12202454 C-0.32440567 45.91257675 -0.30892181 44.70312897 -0.29296875 43.45703125 C-0.28872391 42.21829758 -0.28447906 40.9795639 -0.28010559 39.70329285 C-0.26614733 36.41350999 -0.23920213 33.12416797 -0.20599365 29.83453369 C-0.17527933 26.47633254 -0.16159739 23.11806682 -0.14648438 19.75976562 C-0.11337359 13.17300426 -0.06314257 6.5865382 0 0 Z " fill="#A89DA8" transform="translate(429,24)"/>
<path d="M0 0 C0.71353638 -0.00336868 1.42707275 -0.00673737 2.16223145 -0.01020813 C3.6650313 -0.00991023 5.16789347 0.00525031 6.67041016 0.03442383 C8.96315979 0.07412196 11.25012325 0.05512275 13.54296875 0.02929688 C15.0078348 0.03685671 16.47268809 0.04781095 17.9375 0.0625 C18.95801453 0.05202385 18.95801453 0.05202385 19.99914551 0.04133606 C23.60362043 0.14758704 25.4359869 0.73853226 28.39794922 2.8347168 C30.90932734 6.38445888 31.19534263 9.08969945 31.1328125 13.29296875 C31.13759613 14.00650513 31.14237976 14.7200415 31.14730835 15.4552002 C31.1506981 16.95794897 31.14156008 18.46077241 31.12060547 19.96337891 C31.09381783 22.2559135 31.12037531 24.54355409 31.15234375 26.8359375 C31.14903948 28.30079199 31.14263286 29.76564345 31.1328125 31.23046875 C31.14293365 31.91081177 31.15305481 32.59115479 31.16348267 33.29211426 C31.07492379 36.9116542 30.49645849 38.72275227 28.38427734 41.69311523 C24.72475338 44.28959376 22.61809995 44.3931474 18.15625 44.390625 C17.1192395 44.39424294 17.1192395 44.39424294 16.0612793 44.39793396 C14.60557292 44.39695831 13.14982814 44.38363164 11.69433594 44.35864258 C9.4746209 44.32430956 7.2588874 44.33799718 5.0390625 44.35742188 C3.61977484 44.35052289 2.20049738 44.34085001 0.78125 44.328125 C-0.50136719 44.31724854 -1.78398437 44.30637207 -3.10546875 44.29516602 C-7.06114552 43.6792058 -8.71841827 42.55334987 -11.53125 39.76171875 C-13.7189288 35.38636115 -12.84077496 29.55465517 -12.88134766 24.69580078 C-12.89786943 23.24674374 -12.92511032 21.79776694 -12.96337891 20.34912109 C-13.01845676 18.25185205 -13.04006703 16.15649087 -13.0546875 14.05859375 C-13.07450684 12.80401367 -13.09432617 11.54943359 -13.11474609 10.25683594 C-11.81906839 2.49578073 -7.44260682 -0.16718213 0 0 Z " fill="#8BC9FD" transform="translate(194.53125,398.23828125)"/>
<path d="M0 0 C0.74093399 -0.0066568 1.48186798 -0.0133136 2.24525452 -0.02017212 C3.81118286 -0.03028944 5.37715424 -0.03498942 6.94311523 -0.03466797 C9.33584774 -0.03904092 11.72673452 -0.07536517 14.11914062 -0.11328125 C15.64192079 -0.11914977 17.16470969 -0.12311893 18.6875 -0.125 C19.40115219 -0.13937103 20.11480438 -0.15374207 20.8500824 -0.16854858 C24.06638593 -0.13904188 26.12089469 0.15309121 28.85961914 1.88427734 C30.96976284 5.22076972 30.98503428 8.19502394 30.94140625 12.0234375 C30.94523315 12.76295654 30.94906006 13.50247559 30.95300293 14.2644043 C30.95571896 15.8243954 30.94837917 17.38443228 30.93164062 18.94433594 C30.91022298 21.32850936 30.93144888 23.70966999 30.95703125 26.09375 C30.95438791 27.6119858 30.94926281 29.13021973 30.94140625 30.6484375 C30.94950317 31.35895264 30.9576001 32.06946777 30.96594238 32.80151367 C30.90109305 36.23459182 30.65688869 38.02329189 28.50195312 40.75390625 C23.30882288 44.68148374 17.09260302 43.40808863 10.86206055 43.25878906 C9.35801576 43.22700547 7.85370948 43.20576728 6.34936523 43.1953125 C4.17447843 43.18002163 2.00234347 43.13257882 -0.171875 43.078125 C-2.12444214 43.04501221 -2.12444214 43.04501221 -4.11645508 43.01123047 C-8.51577329 42.15591915 -9.99621249 40.96622642 -12.58984375 37.3359375 C-13.18920898 33.98608398 -13.18920898 33.98608398 -13.1484375 30.20703125 C-13.14610611 29.53551529 -13.14377472 28.86399933 -13.14137268 28.1721344 C-13.13167049 26.75923878 -13.10996414 25.34638 -13.0769043 23.93383789 C-13.02740866 21.77626716 -13.01541571 19.6209785 -13.00976562 17.46289062 C-12.88912576 5.66890805 -12.88912576 5.66890805 -10.58984375 2.3359375 C-6.95306566 -0.08858122 -4.20842778 0.01308758 0 0 Z " fill="#8BC9FD" transform="translate(194.58984375,318.6640625)"/>
<path d="M0 0 C0.95771805 -0.0065712 1.9154361 -0.0131424 2.9021759 -0.01991272 C6.08680286 -0.03970062 9.27138253 -0.05132108 12.45605469 -0.0612793 C13.54112053 -0.06535482 14.62618637 -0.06943035 15.744133 -0.07362938 C21.48811149 -0.0945145 27.23206592 -0.10880509 32.97607422 -0.11816406 C38.91591638 -0.12922787 44.85538385 -0.16362074 50.79509354 -0.20333576 C55.35555731 -0.22945849 59.9159313 -0.2378521 64.47646332 -0.24144554 C66.66615069 -0.24632348 68.85583375 -0.25797161 71.0454483 -0.27648354 C74.11002908 -0.30078004 77.17363403 -0.29992699 80.23828125 -0.29296875 C81.14445694 -0.30577881 82.05063263 -0.31858887 82.98426819 -0.33178711 C87.15741354 -0.29722539 89.32168369 -0.1688161 92.94110107 2.08137512 C95.03048246 4.34206235 95.54087109 5.15194333 95.44042969 8.17700195 C95.44171875 8.83700195 95.44300781 9.49700195 95.44433594 10.17700195 C94.57431063 13.2490913 93.46693043 14.2656365 90.87792969 16.17700195 C87.60889708 16.76840602 84.37417417 16.68183154 81.06054688 16.63110352 C80.06509857 16.63168762 79.06965027 16.63227173 78.04403687 16.63287354 C74.75393802 16.63008695 71.46474526 16.59896691 68.17480469 16.56762695 C65.89366145 16.56016663 63.6125118 16.55447271 61.33135986 16.55047607 C55.32737535 16.53520345 49.32377788 16.4959071 43.31994629 16.45166016 C37.19349402 16.41074287 31.06697921 16.3924726 24.94042969 16.37231445 C12.9194263 16.32941484 0.89871018 16.26114341 -11.12207031 16.17700195 C-10.98182812 13.6974006 -10.83515181 11.21847793 -10.68457031 8.73950195 C-10.64525391 8.03245117 -10.6059375 7.32540039 -10.56542969 6.59692383 C-10.06715606 -1.41378288 -7.19887803 0.02117212 0 0 Z " fill="#A89DA8" transform="translate(289.1220703125,154.822998046875)"/>
<path d="M0 0 C2.67571356 2.84723366 3.00833986 3.52462787 2.9375 7.5625 C2 11 2 11 0.375 12.9375 C-2.92361482 14.4131961 -5.41916971 14.31410792 -9 14 C-10.66666667 13.33333333 -12.33333333 12.66666667 -14 12 C-20.44087187 11.49600605 -26.17091268 13.06495284 -32.375 14.6875 C-33.97891602 15.09742188 -33.97891602 15.09742188 -35.61523438 15.515625 C-42.27290695 17.23502392 -48.874441 19.09481081 -55.45288086 21.09326172 C-61.89843095 23.02700466 -68.41026775 24.67876536 -74.9375 26.3125 C-75.9996875 26.57933594 -77.061875 26.84617188 -78.15625 27.12109375 C-85.74109786 29 -85.74109786 29 -88 29 C-88.10957031 28.34773438 -88.21914062 27.69546875 -88.33203125 27.0234375 C-88.56986328 25.71246094 -88.56986328 25.71246094 -88.8125 24.375 C-88.96332031 23.51648438 -89.11414063 22.65796875 -89.26953125 21.7734375 C-90.10977162 18.58322005 -91.44698223 15.90180306 -93 13 C-91.94425781 12.78085938 -90.88851562 12.56171875 -89.80078125 12.3359375 C-80.40743628 10.3409003 -71.1910195 7.98396669 -61.9753418 5.28710938 C-55.06410494 3.27463223 -48.11885313 1.46709143 -41.12451172 -0.23266602 C-37.29214936 -1.16607243 -33.48191196 -2.1284141 -29.6953125 -3.234375 C-18.18504417 -6.59095555 -10.57653433 -6.339086 0 0 Z " fill="#A0ADBB" transform="translate(244,195)"/>
<path d="M0 0 C0.66 0 1.32 0 2 0 C2.11608127 4.41644598 2.1872132 8.83250017 2.25 13.25 C2.30027344 15.13138672 2.30027344 15.13138672 2.3515625 17.05078125 C2.36445313 18.25605469 2.37734375 19.46132813 2.390625 20.703125 C2.41157227 21.81333008 2.43251953 22.92353516 2.45410156 24.06738281 C2 27 2 27 0.45605469 29.36035156 C-2.87233143 31.5823636 -5.81607498 31.57536818 -9.6875 31.53125 C-10.42701904 31.5350769 -11.16653809 31.53890381 -11.9284668 31.54284668 C-13.4884579 31.54556271 -15.04849478 31.53822292 -16.60839844 31.52148438 C-18.99257186 31.50006673 -21.37373249 31.52129263 -23.7578125 31.546875 C-25.2760483 31.54423166 -26.79428223 31.53910656 -28.3125 31.53125 C-29.02301514 31.53934692 -29.73353027 31.54744385 -30.46557617 31.55578613 C-33.79220471 31.49294759 -35.71873728 31.19813198 -38.46484375 29.26367188 C-40.2433635 26.6411472 -40.43396427 25.37739256 -40.25 22.25 C-40.21390625 21.45078125 -40.1778125 20.6515625 -40.140625 19.828125 C-40.09421875 19.22484375 -40.0478125 18.6215625 -40 18 C-38.94425781 17.69449219 -37.88851562 17.38898438 -36.80078125 17.07421875 C-16.97033768 11.1594137 -16.97033768 11.1594137 0 0 Z " fill="#8AC9FD" transform="translate(223,250)"/>
<path d="M0 0 C-0.04294189 1.14799072 -0.08588379 2.29598145 -0.13012695 3.47875977 C-0.12494068 8.03174391 0.81390227 11.99051306 2.08203125 16.33984375 C2.29687668 17.10623672 2.51172211 17.8726297 2.733078 18.6622467 C3.4165477 21.09018995 4.11449426 23.51370106 4.8125 25.9375 C5.26978511 27.55898987 5.72617286 29.18073309 6.18164062 30.80273438 C8.92568178 43.86699155 8.92568178 43.86699155 15 55 C11.35969312 57.3297964 8.24881273 57.3862557 4 57 C0.66875029 54.63772985 0.09283168 51.60971087 -0.921875 47.78125 C-1.26025391 46.52828125 -1.59863281 45.2753125 -1.94726562 43.984375 C-2.12008057 43.32824219 -2.29289551 42.67210937 -2.47094727 41.99609375 C-2.98936999 40.04010659 -3.52532326 38.08990924 -4.06835938 36.140625 C-4.96632794 32.91618503 -5.84728783 29.68748978 -6.71972656 26.45605469 C-7.07735045 25.13686382 -7.43809877 23.8185165 -7.80175781 22.50097656 C-8.33862384 20.55471801 -8.86475981 18.60550968 -9.390625 16.65625 C-9.70032227 15.51994141 -10.01001953 14.38363281 -10.32910156 13.21289062 C-11.00052534 9.99748419 -11.27946613 7.27174159 -11 4 C-7.57094571 0.16752756 -5.04653478 -0.4694451 0 0 Z " fill="#C48A59" transform="translate(150,128)"/>
<path d="M0 0 C-0.05671875 0.78503906 -0.1134375 1.57007813 -0.171875 2.37890625 C0.05546962 7.16864403 1.36399548 11.36702934 2.75 15.9375 C3.30480025 17.80817472 3.8581763 19.6792724 4.41015625 21.55078125 C4.68230957 22.47068848 4.95446289 23.3905957 5.23486328 24.33837891 C5.92875269 26.75215756 6.57260889 29.1695898 7.18359375 31.60546875 C7.44221191 32.63329468 7.44221191 32.63329468 7.70605469 33.68188477 C8.15841782 35.5076242 8.60103087 37.33577155 9.04296875 39.1640625 C9.98391122 41.95232466 10.72785127 43.19508185 13 45 C4.89891697 47.54151625 4.89891697 47.54151625 1 47 C-2.60942418 44.46793692 -3.22250519 40.56215602 -4.26171875 36.515625 C-4.45723831 35.78180603 -4.65275787 35.04798706 -4.85420227 34.29193115 C-5.26499275 32.73988438 -5.67065322 31.18647199 -6.0715332 29.63183594 C-6.68263672 27.26880546 -7.31363487 24.91176432 -7.94726562 22.5546875 C-8.34495896 21.04198399 -8.74148117 19.52897201 -9.13671875 18.015625 C-9.3241716 17.31745667 -9.51162445 16.61928833 -9.70475769 15.89996338 C-10.83948545 11.43772629 -11.17698059 7.55771391 -11 3 C-7.14243493 0.84694043 -4.44870215 -0.39253254 0 0 Z " fill="#C48A59" transform="translate(132,61)"/>
<path d="M0 0 C1.74861792 -0.10853491 3.49919241 -0.18583428 5.25 -0.25 C6.22453125 -0.29640625 7.1990625 -0.3428125 8.203125 -0.390625 C11.87437552 0.12211949 12.7740648 1.05820965 15 4 C15.3982295 6.70194958 15.56200004 8.98914572 15.53125 11.6875 C15.5350769 12.42701904 15.53890381 13.16653809 15.54284668 13.9284668 C15.54556271 15.4884579 15.53822292 17.04849478 15.52148438 18.60839844 C15.50006673 20.99257186 15.52129263 23.37373249 15.546875 25.7578125 C15.54423166 27.2760483 15.53910656 28.79428223 15.53125 30.3125 C15.53934692 31.02301514 15.54744385 31.73353027 15.55578613 32.46557617 C15.49123065 35.88309828 15.22485789 37.70499865 13.12792969 40.45605469 C10.46639788 42.38716152 9.00094621 42.42110243 5.75 42.25 C4.85796875 42.21390625 3.9659375 42.1778125 3.046875 42.140625 C2.37140625 42.09421875 1.6959375 42.0478125 1 42 C1.48605713 41.33105713 1.97211426 40.66211426 2.47290039 39.97290039 C4.31456648 36.38761374 4.45049978 33.3696838 4.43359375 29.43359375 C4.44145653 28.35973167 4.44145653 28.35973167 4.44947815 27.26417542 C4.45587672 25.75726616 4.45458944 24.25030682 4.44604492 22.7434082 C4.43751173 20.44066647 4.46635774 18.14038906 4.49804688 15.83789062 C4.49965857 14.36979241 4.49908195 12.90168981 4.49609375 11.43359375 C4.50732773 10.74808945 4.51856171 10.06258514 4.53013611 9.35630798 C4.47937857 5.87049374 4.21885258 4.2655748 1.96899414 1.53540039 C1.31922607 1.02871826 0.66945801 0.52203613 0 0 Z " fill="#61B7FE" transform="translate(210,319)"/>
<path d="M0 0 C1.56002428 -0.1363128 3.12357176 -0.23259126 4.6875 -0.3125 C5.55761719 -0.37050781 6.42773438 -0.42851562 7.32421875 -0.48828125 C11.22457438 0.22346248 12.53856668 1.94393795 15 5 C15.4769914 7.73948277 15.65910954 9.84172058 15.59375 12.56640625 C15.59379028 13.2823143 15.59383057 13.99822235 15.59387207 14.73582458 C15.58853101 16.24283675 15.5710083 17.74984953 15.54199219 19.2565918 C15.5000583 21.55929851 15.50093266 23.85908434 15.5078125 26.16210938 C15.49732129 27.63022859 15.48438353 29.09833279 15.46875 30.56640625 C15.46854858 31.25191055 15.46834717 31.93741486 15.46813965 32.64369202 C15.36884844 36.66382352 14.95374252 39.16602178 12 42 C9.51953125 42.390625 9.51953125 42.390625 6.8125 42.25 C5.91144531 42.21390625 5.01039063 42.1778125 4.08203125 42.140625 C3.39496094 42.09421875 2.70789063 42.0478125 2 42 C2.48460693 41.23997681 2.48460693 41.23997681 2.97900391 40.46459961 C4.34169759 37.17517044 4.32455912 34.07097277 4.3359375 30.56640625 C4.3459227 29.49397926 4.3459227 29.49397926 4.35610962 28.39988708 C4.3662117 26.89121057 4.3709274 25.3824896 4.37060547 23.8737793 C4.37497946 21.5733033 4.41132198 19.2747463 4.44921875 16.97460938 C4.45508747 15.50521486 4.4590565 14.03581128 4.4609375 12.56640625 C4.47530853 11.88292618 4.48967957 11.19944611 4.50448608 10.49525452 C4.45923294 5.73408295 3.29680702 3.39031319 0 0 Z " fill="#61B7FE" transform="translate(210,399)"/>
<path d="M0 0 C2.17594925 6.81279348 4.39795802 13.81050161 3 21 C0.9375 23.6875 0.9375 23.6875 -2 25 C-5.625 25 -5.625 25 -9 24 C-11.93040793 20.90922148 -13.01269488 17.52585845 -14.25 13.5 C-14.60578125 12.3759375 -14.9615625 11.251875 -15.328125 10.09375 C-15.96531293 7.15972184 -16.05275565 5.75336094 -15 3 C-13.25183142 2.49363393 -11.50137737 1.99515381 -9.75 1.5 C-8.77546875 1.2215625 -7.8009375 0.943125 -6.796875 0.65625 C-4 0 -4 0 0 0 Z " fill="#F1D0A4" transform="translate(178,120)"/>
<path d="M0 0 C1.66072636 5.35122938 2.76095933 11.45586774 2 17 C-0.44598887 20.38121991 -1.89296559 21.76936783 -6 22.625 C-10.06483716 21.77815893 -11.36161939 20.17370421 -14 17 C-15.14453125 13.44921875 -15.14453125 13.44921875 -15.8125 9.6875 C-16.04582031 8.43324219 -16.27914062 7.17898437 -16.51953125 5.88671875 C-16.67808594 4.93410156 -16.83664063 3.98148438 -17 3 C-14.54383175 2.30378686 -12.0855877 1.61775372 -9.625 0.9375 C-8.57699219 0.63875977 -8.57699219 0.63875977 -7.5078125 0.33398438 C-2.2265625 -1.11328125 -2.2265625 -1.11328125 0 0 Z " fill="#F1CFA3" transform="translate(155,55)"/>
<path d="M0 0 C0.11608127 4.41644598 0.1872132 8.83250017 0.25 13.25 C0.30027344 15.13138672 0.30027344 15.13138672 0.3515625 17.05078125 C0.36445313 18.25605469 0.37734375 19.46132813 0.390625 20.703125 C0.41157227 21.81333008 0.43251953 22.92353516 0.45410156 24.06738281 C-0.10372393 27.66985584 -1.12900791 28.82263543 -4 31 C-6.796875 31.390625 -6.796875 31.390625 -9.75 31.25 C-10.73484375 31.21390625 -11.7196875 31.1778125 -12.734375 31.140625 C-13.48203125 31.09421875 -14.2296875 31.0478125 -15 31 C-14.34515625 30.3915625 -13.6903125 29.783125 -13.015625 29.15625 C-9.74963093 24.04205773 -10.62722177 18.57792312 -10.86328125 12.66015625 C-10.85363333 5.85837047 -10.85363333 5.85837047 -8.24023438 3.23046875 C-3.2034331 0 -3.2034331 0 0 0 Z " fill="#61B7FE" transform="translate(225,250)"/>
<path d="M0 0 C2.4375 1.625 2.4375 1.625 4 4 C4.5625 6.9375 4.5625 6.9375 4 10 C1.51397551 13.36344489 0.08574477 14.80057749 -4.0625 15.5625 C-7 15 -7 15 -9.375 13.4375 C-11.62340519 10.06489221 -11.56783945 7.97487617 -11 4 C-8.11188513 -0.5054592 -5.11821063 -0.73117295 0 0 Z " fill="#E9ECEE" transform="translate(136,215)"/>
</svg>
