<svg version="1.1" xmlns="http://www.w3.org/2000/svg" width="399" height="221">

<path d="M0 0 C1.28171584 0.92256605 2.55698214 1.85458637 3.8125 2.8125 C6.53726047 1.51898734 8.91826122 0.05291106 11.375 -1.6875 C19.46788023 -6.79641322 29.95585279 -7.14414585 39.1875 -5.5625 C50.93789269 -2.66542042 59.43520238 5.9566764 65.8125 15.8125 C65.8125 16.4725 65.8125 17.1325 65.8125 17.8125 C66.4725 17.8125 67.1325 17.8125 67.8125 17.8125 C67.8125 17.1525 67.8125 16.4925 67.8125 15.8125 C71.09991634 13.08634986 73.22794052 11.88185451 77.5 11.375 C80.8125 11.8125 80.8125 11.8125 82.75 12.8125 C84.49537496 16.0979117 84.38021763 19.24034414 83.8125 22.8125 C81.88576502 28.73421655 78.81270575 32.22539587 73.8125 35.8125 C72.8225 36.3075 72.8225 36.3075 71.8125 36.8125 C72.823125 37.451875 73.83375 38.09125 74.875 38.75 C76.89135759 40.44067513 77.71573946 41.28960215 78.19921875 43.90234375 C77.89355829 49.01124006 76.29334745 52.6081555 72.77734375 56.3046875 C69.19336299 59.05501866 65.08334106 60.45359603 60.8125 61.8125 C61.45316406 62.07417969 62.09382813 62.33585937 62.75390625 62.60546875 C64.8125 63.8125 64.8125 63.8125 65.75 67.125 C65.82024885 71.26968211 65.38936741 72.63436353 62.8125 75.8125 C57.23455386 80.8183491 53.1176265 82.08198735 45.8125 82.8125 C46.3075 83.18375 46.8025 83.555 47.3125 83.9375 C48.8125 85.8125 48.8125 85.8125 49.3125 88.6875 C48.63402327 92.92797956 47.15879358 94.17818378 43.8125 96.8125 C38.32784622 99.87124923 33.90064871 100.14728618 27.8125 99.8125 C27.1525 99.8125 26.4925 99.8125 25.8125 99.8125 C26.4725 100.4725 27.1325 101.1325 27.8125 101.8125 C28.28034692 105.3993264 28.32544839 107.12856881 26.125 110.0625 C20.71110855 114.15949893 15.43813668 114.51328849 8.8125 113.8125 C5.671821 112.61333165 3.58821598 111.72434442 1.41015625 109.1640625 C-0.08668406 107.58965113 -0.08668406 107.58965113 -2.1328125 107.88671875 C-2.85210937 108.08910156 -3.57140625 108.29148437 -4.3125 108.5 C-5.51326172 108.81324219 -5.51326172 108.81324219 -6.73828125 109.1328125 C-7.54652344 109.35710937 -8.35476562 109.58140625 -9.1875 109.8125 C-16.03973068 111.56568335 -23.08672131 112.94543189 -30.1875 112.8125 C-30.8475 112.1525 -31.5075 111.4925 -32.1875 110.8125 C-31.65178571 107.27678571 -31.65178571 107.27678571 -30.1875 105.8125 C-28.00457226 105.57768307 -25.81546826 105.39886677 -23.625 105.25 C-22.42746094 105.16621094 -21.22992188 105.08242187 -19.99609375 104.99609375 C-19.06925781 104.93550781 -18.14242187 104.87492187 -17.1875 104.8125 C-17.1875 104.1525 -17.1875 103.4925 -17.1875 102.8125 C-18.50814453 102.64427734 -18.50814453 102.64427734 -19.85546875 102.47265625 C-30.6422584 100.33553145 -40.27898592 92.25578747 -46.5 83.4375 C-52.51763078 73.77585948 -54.23788457 64.69680271 -54.7109375 53.48046875 C-55.10214664 50.46944099 -55.56653989 48.66089582 -56.69921875 45.94921875 C-58.51310499 41.4270541 -58.68684073 37.27081564 -58.625 32.4375 C-58.61255249 31.18187256 -58.61255249 31.18187256 -58.59985352 29.90087891 C-58.30964854 19.28206181 -54.60072435 11.45251515 -47.1875 3.8125 C-33.59884869 -7.94910576 -15.29888058 -10.12742799 0 0 Z " fill="#84C887" transform="translate(186.1875,8.1875)" data-index="1" style="opacity: 1; visibility: visible;"></path>
<path d="M0 0 C2.867587 1.72890947 5.17447747 3.88508046 7.62890625 6.14453125 C9.16975454 7.5284614 9.16975454 7.5284614 11.70703125 7.48046875 C14.33294503 6.20117742 16.31125705 4.53862535 18.51171875 2.63671875 C25.0378902 -2.73410178 31.06016504 -3.33570948 39.4453125 -3.09375 C47.4871193 -2.25305425 53.33502899 0.78922976 59.14453125 6.29296875 C58.64953125 6.95296875 58.15453125 7.61296875 57.64453125 8.29296875 C55.7544153 12.07320064 55.45328107 15.18912556 56.14453125 19.29296875 C57.26335866 22.41212395 58.62000967 25.35281999 60.14453125 28.29296875 C59.57863281 28.41414063 59.01273437 28.5353125 58.4296875 28.66015625 C57.69621094 28.82773437 56.96273437 28.9953125 56.20703125 29.16796875 C55.11068359 29.41160156 55.11068359 29.41160156 53.9921875 29.66015625 C51.93752831 30.12258398 51.93752831 30.12258398 51.14453125 32.29296875 C51.04732698 34.22847739 51.01475211 36.16752667 51.01953125 38.10546875 C51.01695312 39.14316406 51.014375 40.18085937 51.01171875 41.25 C51.1337695 44.04639817 51.5108977 46.57236754 52.14453125 49.29296875 C51.07203125 49.04546875 49.99953125 48.79796875 48.89453125 48.54296875 C45.1456474 47.87983417 45.1456474 47.87983417 42.76953125 50.10546875 C40.14564058 53.63762927 39.90731563 56.04986426 39.58203125 60.41796875 C39.45634766 62.06152344 39.45634766 62.06152344 39.328125 63.73828125 C39.26753906 64.58132812 39.20695312 65.424375 39.14453125 66.29296875 C37.65953125 65.30296875 37.65953125 65.30296875 36.14453125 64.29296875 C33.73035253 63.70894742 33.73035253 63.70894742 31.14453125 64.29296875 C25.52550836 68.86659204 24.11825816 73.31459255 23.14453125 80.29296875 C22.44328125 79.77734375 21.74203125 79.26171875 21.01953125 78.73046875 C17.4552143 76.94831028 15.92013239 77.1683216 12.14453125 78.29296875 C10.7868334 79.25963019 9.44871105 80.25523428 8.14453125 81.29296875 C7.36529297 80.29716797 7.36529297 80.29716797 6.5703125 79.28125 C2.9615935 74.71198472 -0.57192599 70.2552458 -4.85546875 66.29296875 C-5.3453125 65.79796875 -5.83515625 65.30296875 -6.33984375 64.79296875 C-14.77326004 56.73271247 -25.84071984 50.61957328 -36.73046875 46.60546875 C-41.47346767 44.78223661 -41.47346767 44.78223661 -43.21875 42.546875 C-44.04296875 40.66796875 -44.04296875 40.66796875 -44.85546875 37.29296875 C-45.35046875 35.80796875 -45.35046875 35.80796875 -45.85546875 34.29296875 C-46.79799659 24.14148041 -45.16972276 16.02651786 -38.66796875 8.04296875 C-28.29828705 -2.99861457 -14.05059473 -6.45441914 0 0 Z " fill="#F8F9F8" transform="translate(179.85546875,11.70703125)" data-index="2" style="opacity: 1; visibility: visible;"></path>
<path d="M0 0 C1.155 0.28875 2.31 0.5775 3.5 0.875 C4.16 0.215 4.82 -0.445 5.5 -1.125 C8.1015625 -1.3203125 8.1015625 -1.3203125 11.125 -1.25 C12.62933594 -1.22292969 12.62933594 -1.22292969 14.1640625 -1.1953125 C14.93492187 -1.17210937 15.70578125 -1.14890625 16.5 -1.125 C16.05000062 0.97499712 15.64513908 2.64824407 14.47973633 4.46899414 C12.99970558 8.10360742 13.19490465 11.75506335 13.19921875 15.62109375 C13.19279106 16.89328514 13.19279106 16.89328514 13.18623352 18.19117737 C13.18049865 19.9823416 13.17998375 21.77352912 13.18432617 23.56469727 C13.18748487 26.29939666 13.16402155 29.03301251 13.13867188 31.76757812 C13.1363986 33.51041531 13.13569551 35.25325539 13.13671875 36.99609375 C13.127509 37.8108165 13.11829926 38.62553925 13.10881042 39.46495056 C13.14753674 44.23686572 13.77688984 46.82881203 16.5 50.875 C16.5 52.195 16.5 53.515 16.5 54.875 C10.89 54.875 5.28 54.875 -0.5 54.875 C0.5 49.875 0.5 49.875 1.5546875 47.890625 C2.74930226 45.3434299 2.69863091 43.42297465 2.625 40.625 C2.59792969 39.28695312 2.59792969 39.28695312 2.5703125 37.921875 C2.54710937 37.24640625 2.52390625 36.5709375 2.5 35.875 C1.2934375 36.37 1.2934375 36.37 0.0625 36.875 C-6.98277502 38.85262106 -12.81654056 38.45587766 -19.41796875 35.21875 C-23.77373465 32.40752398 -26.86353976 28.78438072 -28.5 23.875 C-29.21394519 16.99052849 -29.24292294 11.23045267 -25.0703125 5.49609375 C-22.49949117 2.8421364 -19.83816345 1.4496054 -16.5 -0.125 C-11.65182302 -2.54908849 -5.04950772 -1.43346831 0 0 Z " fill="#484848" transform="translate(290.5,163.125)" data-index="3" style="opacity: 1;"></path>
<path d="M0 0 C1.62463842 -0.05395478 3.24978541 -0.09277195 4.875 -0.125 C5.77992188 -0.14820313 6.68484375 -0.17140625 7.6171875 -0.1953125 C10 0 10 0 12 2 C13.98491642 1.73323796 13.98491642 1.73323796 16 1 C22.40647613 -1.13549204 28.27850745 -0.69365722 34.375 2.1875 C39.26160121 4.89545954 42.20466918 7.61400753 44 13 C44.6781557 20.08188307 45.00280067 26.50743585 40.62890625 32.4140625 C35.24642144 37.6545633 28.28303309 39.23629003 20.97265625 39.16796875 C18.39266021 38.94828592 16.30491646 38.15245823 14 37 C13.66754151 43.23051835 13.76559156 47.47455225 17 53 C17 53.99 17 54.98 17 56 C11.39 56 5.78 56 0 56 C1 51 1 51 2.04370117 48.71069336 C3.34282078 45.02825142 3.30537848 41.48613313 3.30078125 37.62890625 C3.30506638 36.82895737 3.3093515 36.02900848 3.31376648 35.20481873 C3.31949279 33.51798445 3.3200226 31.8311255 3.31567383 30.14428711 C3.31251448 27.57427538 3.33599104 25.00541645 3.36132812 22.43554688 C3.36360148 20.79166811 3.36430444 19.14778627 3.36328125 17.50390625 C3.37709587 16.35989098 3.37709587 16.35989098 3.39118958 15.19276428 C3.34947478 10.34288821 2.40085611 7.31646235 0 3 C0 2.01 0 1.02 0 0 Z " fill="#494949" transform="translate(189,162)" data-index="4" style="opacity: 1;"></path>
<path d="M0 0 C4.29 0 8.58 0 13 0 C13 6.27 13 12.54 13 19 C14.32 18.34 15.64 17.68 17 17 C23.09775822 16.1857031 28.92554281 16.42465923 34.27734375 19.64453125 C38.19834855 22.72976632 40.59028254 25.85034677 41.25146484 30.93310547 C41.48064734 33.90172445 41.6209985 36.85509471 41.63647461 39.83276367 C41.69906556 44.69657868 42.64137583 47.64465695 45 52 C45 53.32 45 54.64 45 56 C39.72 56 34.44 56 29 56 C30 50 30 50 31 48 C31.15159403 45.23632418 31.23141393 42.51467843 31.25 39.75 C31.270625 38.99847656 31.29125 38.24695313 31.3125 37.47265625 C31.35527304 31.3454179 30.07359872 27.18879864 25.75 22.625 C22.24036632 20.55112556 20.01053669 20.47030648 16 21 C13.04230134 25.43654799 13.67063231 29.59363702 13.6875 34.8125 C13.67138672 35.79798828 13.65527344 36.78347656 13.63867188 37.79882812 C13.63491696 43.38989625 14.0762549 47.08594822 17 52 C17 52.99 17 53.98 17 55 C11.72 55 6.44 55 1 55 C2 50 2 50 3.04150391 48.20239258 C4.51241096 44.82260334 4.32541178 41.38778264 4.3359375 37.76171875 C4.3425943 36.96272659 4.3492511 36.16373444 4.35610962 35.3405304 C4.36621983 33.65192968 4.37092714 31.96328915 4.37060547 30.2746582 C4.3749677 27.70651399 4.4112716 25.14010473 4.44921875 22.57226562 C4.45508969 20.92708917 4.45905723 19.2819046 4.4609375 17.63671875 C4.47530853 16.87606613 4.48967957 16.11541351 4.50448608 15.33171082 C4.45739485 9.76542636 2.98815873 6.67690883 0 2 C0 1.34 0 0.68 0 0 Z " fill="#434343" transform="translate(27,145)" data-index="5"></path>
<path d="M0 0 C5.31987692 2.11230407 8.43292267 4.86850323 11 10 C11.34057617 13.22973633 11.34057617 13.22973633 11.29296875 16.83203125 C11.28330078 18.12431641 11.27363281 19.41660156 11.26367188 20.74804688 C11.23860985 22.1028707 11.21321506 23.45768841 11.1875 24.8125 C11.17244013 26.18683445 11.15875401 27.56118468 11.14648438 28.93554688 C11.11116628 32.29076632 11.06183851 35.64518166 11 39 C7.62529496 39.11689626 4.2511157 39.18747934 0.875 39.25 C-0.07632813 39.28351563 -1.02765625 39.31703125 -2.0078125 39.3515625 C-8.04418815 39.43540105 -11.39420935 38.99957101 -16 35 C-19.51627235 30.99872457 -20.35980905 27.40451568 -20.28125 22.0625 C-19.68293924 17.67488773 -17.08067867 14.95354 -13.875 12.125 C-9.63940679 10.46759396 -5.49851996 10.58597692 -1 11 C-0.34 11.33 0.32 11.66 1 12 C1.23428313 7.2102679 1.23428313 7.2102679 -1 3 C-3.41344667 2.33256123 -3.41344667 2.33256123 -6 3 C-6.928125 4.2375 -6.928125 4.2375 -7.875 5.5 C-10 8 -10 8 -13.75 8.3125 C-14.8225 8.209375 -15.895 8.10625 -17 8 C-14.20078216 -0.63092168 -8.24577354 -1.21864333 0 0 Z " fill="#4A4A4A" transform="translate(171,162)" data-index="6" style="opacity: 1;"></path>
<path d="M0 0 C4.92929081 3.38284663 7.56052088 6.65191115 10 12 C10 13.98 10 15.96 10 18 C-5.345 18.495 -5.345 18.495 -21 19 C-17.4629958 28.85551314 -17.4629958 28.85551314 -10 35 C-6.09753614 35.45528745 -3.70602135 35.23534045 0 34 C1.02281518 31.90280128 1.02281518 31.90280128 1.6875 29.4375 C1.93886719 28.61121094 2.19023438 27.78492188 2.44921875 26.93359375 C2.63097656 26.29550781 2.81273437 25.65742188 3 25 C4.98 25 6.96 25 9 25 C7.62798559 30.18316555 4.2962988 33.06405232 0 36 C-5.28720531 38.53165857 -10.23329597 38.77644262 -16 38 C-22.17443338 35.66766766 -25.63288491 31.50982468 -29 26 C-30.76974878 20.69075367 -30.47977618 15.73918865 -29 10.375 C-25.90390254 5.15033554 -21.72078744 1.52629539 -16.4375 -1.4375 C-10.64629925 -2.77393094 -5.51191702 -2.10455013 0 0 Z " fill="#494949" transform="translate(108,163)" data-index="7" style="opacity: 1;"></path>
<path d="M0 0 C3.4293486 3.14478563 6.25874067 6.65899999 8 11 C8 12.65 8 14.3 8 16 C-2.56 16 -13.12 16 -24 16 C-20.65863423 25.54207873 -20.65863423 25.54207873 -14.125 32.3125 C-11.15651857 33.27289105 -9.10581362 33.44368766 -6 33 C-2.35415587 30.09989671 -0.39448252 27.43698984 1 23 C2.65 23 4.3 23 6 23 C5.41661146 26.93787261 3.75728395 29.17201647 1 32 C-4.08697524 35.70725318 -9.08301238 36.69974743 -15.3203125 36.44921875 C-22.41375366 35.26008503 -26.90071017 30.58994068 -31 25 C-33.2282383 20.54352339 -32.49262277 14.8356304 -32 10 C-29.90059383 4.0689422 -25.52648245 -0.11930557 -20 -3 C-12.65805392 -5.21965812 -6.41499505 -4.00062418 0 0 Z " fill="#474747" transform="translate(389,165)" data-index="8" style="opacity: 1;"></path>
<path d="M0 0 C2.98577831 2.43576652 4.8011686 4.36390162 5.2734375 8.25 C5.59052556 16.83576892 3.51444609 23.20809764 -2.375 29.5625 C-5.71382828 31.39090597 -8.19276748 31.9320137 -12 32 C-15.42499327 30.67670714 -16.72895848 29.39254289 -18.8125 26.375 C-20.85015691 20.58376456 -20.95305598 15.45401999 -18.375 9.8125 C-14.02032409 2.06396635 -9.13871988 -2.08426945 0 0 Z " fill="#F5F5F5" transform="translate(290,166)" data-index="9" style="opacity: 1; visibility: visible;"></path>
<path d="M0 0 C5.57943649 3.0128957 9.58805158 7.10868768 12 13 C12.68400723 18.5728589 13.44888215 25.01425434 9.9375 29.75 C6.37967867 32.47513974 4.4795559 33.1571774 0 33 C-6.24632724 30.12668947 -9.04034077 24.91931846 -12 19 C-12.17471848 16.90051399 -12.26717852 14.79375592 -12.3125 12.6875 C-12.34988281 11.55699219 -12.38726562 10.42648438 -12.42578125 9.26171875 C-11.91605818 5.35695943 -10.72790817 3.77851871 -8 1 C-5.13391871 -0.43304064 -3.18699217 -0.30644155 0 0 Z " fill="#F6F6F6" transform="translate(213,165)" data-index="10" style="opacity: 1; visibility: visible;"></path>
<path d="M0 0 C4.62 0 9.24 0 14 0 C13 4 13 4 12 6 C11.70547518 9.7853548 11.72204619 13.57952512 11.6875 17.375 C11.65849609 18.42945313 11.62949219 19.48390625 11.59960938 20.5703125 C11.59123047 21.58609375 11.58285156 22.601875 11.57421875 23.6484375 C11.55963623 24.57833496 11.54505371 25.50823242 11.5300293 26.46630859 C12.14171662 29.76401822 13.41244165 30.93701894 16 33 C18.47575713 33.59053141 18.47575713 33.59053141 21.0625 33.4375 C22.34833984 33.43556641 22.34833984 33.43556641 23.66015625 33.43359375 C26.53100439 32.90160019 27.26217905 32.3240924 29 30 C29.43064696 27.25940838 29.43064696 27.25940838 29.328125 24.16015625 C29.32296875 23.01482422 29.3178125 21.86949219 29.3125 20.68945312 C29.291875 19.49255859 29.27125 18.29566406 29.25 17.0625 C29.24484375 15.86947266 29.2396875 14.67644531 29.234375 13.44726562 C29.19194596 8.72968681 29.14884537 4.59538147 28 0 C30.97 0 33.94 0 37 0 C36 4 36 4 35 5 C34.89068192 6.78276909 34.8441413 8.56946227 34.82421875 10.35546875 C34.80037109 11.45310547 34.77652344 12.55074219 34.75195312 13.68164062 C34.70934677 15.99916801 34.67790144 18.31693033 34.65820312 20.63476562 C34.49805189 27.01474381 34.3461663 31.1736393 30 36 C26.0884224 39.55597963 21.86741324 39.57060448 16.79296875 39.40625 C12.43977839 38.77305867 8.9376205 37.32560811 6 34 C3.06860305 27.83114377 2.54236296 22.45365748 2.4375 15.6875 C2.40305085 13.92038628 2.3604379 12.15340769 2.30859375 10.38671875 C2.29626709 9.61545654 2.28394043 8.84419434 2.27124023 8.04956055 C2.11229459 5.69097003 2.11229459 5.69097003 0 3 C0 2.01 0 1.02 0 0 Z " fill="#4F4F4F" transform="translate(313,162)" data-index="11" style="opacity: 1;"></path>
<path d="M0 0 C0 5.61 0 11.22 0 17 C1.65 17 3.3 17 5 17 C5 17.99 5 18.98 5 20 C3.35 20 1.7 20 0 20 C0.08104226 24.06330657 0.19387434 28.12513061 0.3125 32.1875 C0.33505859 33.33798828 0.35761719 34.48847656 0.38085938 35.67382812 C0.41630859 36.78564453 0.45175781 37.89746094 0.48828125 39.04296875 C0.51446533 40.06414795 0.54064941 41.08532715 0.56762695 42.13745117 C1.05897788 45.39046617 2.21072271 47.2722845 4 50 C4.6875 52.8125 4.6875 52.8125 5 55 C1.87057543 55.45796457 -0.23225198 55.50559016 -2.921875 53.734375 C-7.64163669 49.71672662 -7.64163669 49.71672662 -9 47 C-9.08527628 44.96767366 -9.10716135 42.93252994 -9.09765625 40.8984375 C-9.09443359 39.68671875 -9.09121094 38.475 -9.08789062 37.2265625 C-9.07951172 35.95554688 -9.07113281 34.68453125 -9.0625 33.375 C-9.05798828 32.09625 -9.05347656 30.8175 -9.04882812 29.5 C-9.03701203 26.33328708 -9.02053815 23.16666644 -9 20 C-10.98 20 -12.96 20 -15 20 C-15 19.01 -15 18.02 -15 17 C-13.02 17 -11.04 17 -9 17 C-9 12.38 -9 7.76 -9 3 C-3 0 -3 0 0 0 Z " fill="#4A4A4A" transform="translate(16,145)" data-index="12"></path>
<path d="M0 0 C4.29 0 8.58 0 13 0 C13 0.99 13 1.98 13 3 C13.61875 2.505 14.2375 2.01 14.875 1.5 C19.19051643 -0.57144789 23.27751329 -0.61632454 28 0 C28.99 0.66 29.98 1.32 31 2 C29.02 4.97 29.02 4.97 27 8 C26.29875 7.67 25.5975 7.34 24.875 7 C21.69224674 5.89295539 19.34671266 5.70251443 16 6 C13.0279702 8.9720298 13.7076468 11.68658254 13.67773438 15.75195312 C13.68095703 16.76193359 13.68417969 17.77191406 13.6875 18.8125 C13.67138672 19.81087891 13.65527344 20.80925781 13.63867188 21.83789062 C13.63511198 27.18129157 13.78515964 30.54672509 17 35 C17 36.32 17 37.64 17 39 C11.39 39 5.78 39 0 39 C1 35 1 35 2.04370117 32.58618164 C3.73734661 28.00594521 3.32751608 23.26967387 3.3125 18.4375 C3.32861328 17.39658203 3.34472656 16.35566406 3.36132812 15.28320312 C3.36197266 14.28095703 3.36261719 13.27871094 3.36328125 12.24609375 C3.36626221 11.33529053 3.36924316 10.4244873 3.37231445 9.48608398 C2.93248981 6.54920903 1.81987029 5.29085308 0 3 C0 2.01 0 1.02 0 0 Z " fill="#494949" transform="translate(124,162)" data-index="13" style="opacity: 1;"></path>
<path d="M0 0 C4.59565036 1.23014883 7.98756278 3.4475511 10.9375 7.1875 C13.70222918 12.04644264 13.60808056 17.36962805 13.63647461 22.83276367 C13.69906556 27.69657868 14.64137583 30.64465695 17 35 C17 36.32 17 37.64 17 39 C11.72 39 6.44 39 1 39 C2 33 2 33 3 31 C3.15159403 28.23632418 3.23141393 25.51467843 3.25 22.75 C3.270625 21.99847656 3.29125 21.24695313 3.3125 20.47265625 C3.35475353 14.4198381 2.06023241 10.30995755 -2.0625 5.6875 C-6.23264769 3.29188324 -10.25879707 3.18412439 -15 3 C-10.35983358 -1.08724939 -5.91487243 -0.71273394 0 0 Z " fill="#4B4B4B" transform="translate(55,162)" data-index="14"></path>
<path d="M0 0 C3.63 0 7.26 0 11 0 C11.01458252 0.87736816 11.02916504 1.75473633 11.04418945 2.65869141 C11.1054968 5.93549321 11.17969333 9.21148944 11.26245117 12.48779297 C11.29556291 13.9017449 11.32363716 15.31582464 11.34643555 16.72998047 C11.38023775 18.77105823 11.43255964 20.81097928 11.48828125 22.8515625 C11.51446533 24.07697754 11.54064941 25.30239258 11.56762695 26.56494141 C12.03652678 30.29019299 13.24108448 32.716184 15 36 C15 36.99 15 37.98 15 39 C10.05 39 5.1 39 0 39 C1 34 1 34 2.04296875 31.80859375 C3.48179536 27.58607812 3.32863068 23.49198546 3.3125 19.0625 C3.32861328 18.18142578 3.34472656 17.30035156 3.36132812 16.39257812 C3.36530819 11.07919245 2.71613097 7.69410498 0 3 C0 2.01 0 1.02 0 0 Z " fill="#484848" transform="translate(240,162)" data-index="15" style="opacity: 1;"></path>
<path d="M0 0 C4.94629878 4.18239164 9.72624337 8.49330765 14.4375 12.9375 C18.94558605 17.1677583 23.46335576 21.3673945 28.1484375 25.40234375 C31.80454938 28.55709007 35.39495228 31.78716812 39 35 C35.62630151 36.68684925 32.51978345 35.08620445 29.0234375 34.0859375 C24.24780136 32.37065733 20.18100387 29.84064561 16 27 C14.6696875 26.13375 14.6696875 26.13375 13.3125 25.25 C6.59978781 18.71871246 2.50778619 10.97195557 0 2 C0 1.34 0 0.68 0 0 Z " fill="#F4F7F4" transform="translate(139,71)" data-index="16" style="opacity: 1; visibility: visible;"></path>
<path d="M0 0 C4.46162504 0.75620763 5.85172942 1.96220538 8.51953125 5.48828125 C10.50385474 9.11846502 11.00241918 12.52336966 10.6875 16.625 C9.6875 19.625 9.6875 19.625 7.6875 21.625 C4.3125 22.75 4.3125 22.75 0.6875 22.625 C-2.62768662 20.04652152 -4.72079721 17.48452712 -6.3125 13.625 C-6.61328125 11.15234375 -6.61328125 11.15234375 -6.625 8.5625 C-6.64175781 7.70527344 -6.65851563 6.84804687 -6.67578125 5.96484375 C-6.3125 3.625 -6.3125 3.625 -5 1.85546875 C-3.3125 0.625 -3.3125 0.625 0 0 Z " fill="#F5F5F5" transform="translate(163.3125,175.375)" data-index="17" style="opacity: 1; visibility: visible;"></path>
<path d="M0 0 C3.84321062 1.19879964 6.65972037 3.52600854 9.12890625 6.6640625 C10.11890625 8.9740625 11.10890625 11.2840625 12.12890625 13.6640625 C3.87890625 13.6640625 -4.37109375 13.6640625 -12.87109375 13.6640625 C-12.87109375 7.46911958 -12.52232525 6.25418209 -8.87109375 1.6640625 C-5.52663516 -0.56557656 -3.90893736 -0.61909505 0 0 Z " fill="#EFEFEF" transform="translate(376.87109375,164.3359375)" data-index="18" style="opacity: 1; visibility: visible;"></path>

<path d="M0 0 C16.09623105 4.750111 30.21566726 16.61859924 38.98828125 30.6875 C40 33 40 33 39 36 C34.63151246 32.20502898 30.29594745 28.37699282 26 24.5 C23.01937279 21.81016569 20.02754767 19.13689636 17 16.5 C13.88732202 13.78036893 10.77958093 11.05554719 7.6875 8.3125 C6.86636719 7.58675781 6.04523438 6.86101562 5.19921875 6.11328125 C3.19694921 4.18925315 1.5849679 2.27230025 0 0 Z " fill="#F2F6F3" transform="translate(143,65)" data-index="20" style="opacity: 1; visibility: visible;"></path>
<path d="M0 0 C0.66 0.66 1.32 1.32 2 2 C1.030625 2.309375 0.06125 2.61875 -0.9375 2.9375 C-3.84065792 3.69523342 -3.84065792 3.69523342 -5 5 C-5.56973898 9.87547129 -5.6157706 14.58494378 -3.4375 19.0625 C-1.26065098 22.2753775 -1.26065098 22.2753775 2.25 22.8125 C3.4875 22.874375 4.725 22.93625 6 23 C8.6919423 23.58458992 11.33508678 24.29870705 14 25 C14 25.33 14 25.66 14 26 C11.45868165 26.27767374 8.92090278 26.52260763 6.375 26.75 C5.66214844 26.83121094 4.94929688 26.91242188 4.21484375 26.99609375 C-1.08604516 27.43378182 -3.76659662 26.50548787 -8 23 C-11.51627235 18.99872457 -12.35980905 15.40451568 -12.28125 10.0625 C-11.81163806 6.61867908 -10.22860816 4.59000408 -8 2 C-3.71641791 -1.23880597 -3.71641791 -1.23880597 0 0 Z " fill="#525252" transform="translate(163,174)" data-index="21" style="opacity: 1;"></path>
<path d="M0 0 C0.66 0.66 1.32 1.32 2 2 C1.625 5.625 1.625 5.625 1 9 C-5.42548263 10.33359073 -5.42548263 10.33359073 -7.9375 8.875 C-9.37604008 6.33639987 -9.50262362 4.87213496 -9 2 C-6.07557433 -1.24936186 -4.04996841 -1.38551551 0 0 Z " fill="#4A4A4A" transform="translate(250,148)" data-index="22"></path>
<path d="M0 0 C1.65 0 3.3 0 5 0 C4.41661146 3.93787261 2.75728395 6.17201647 0 9 C-6.53721683 13 -6.53721683 13 -10 13 C-10 12.34 -10 11.68 -10 11 C-9.0925 10.67 -8.185 10.34 -7.25 10 C-3.01932133 7.39650543 -1.81453912 4.49365277 0 0 Z " fill="#555555" transform="translate(390,188)" data-index="23"></path>
<path d="M0 0 C1.98 0 3.96 0 6 0 C4.61668258 5.22586581 1.32133539 8.03858796 -3 11 C-6.4375 12.375 -6.4375 12.375 -9 13 C-9.33 12.34 -9.66 11.68 -10 11 C-8.906875 10.855625 -7.81375 10.71125 -6.6875 10.5625 C-4.71531062 10.12436235 -4.71531062 10.12436235 -3 9 C-1.47156347 6.11705247 -0.68691621 3.17944076 0 0 Z " fill="#545454" transform="translate(111,188)" data-index="24" style="opacity: 1;"></path>
<path d="M0 0 C-0.53297764 4.53030991 -2.16020055 7.45025069 -5 11 C-7.75 12.375 -7.75 12.375 -10 13 C-9.47470631 8.8911959 -8.33192009 6.74480159 -5.5625 3.6875 C-4.94503906 2.99011719 -4.32757813 2.29273438 -3.69140625 1.57421875 C-2 0 -2 0 0 0 Z " fill="#ECF4ED" transform="translate(264,26)" data-index="25" style="opacity: 1; visibility: visible;"></path>
<path d="M0 0 C-0.98841164 2.6956681 -1.69372185 3.81623311 -4.1875 5.3125 C-7.71886726 6.17572311 -10.460746 5.69397137 -14 5 C-14 4.34 -14 3.68 -14 3 C-9.07015675 0.96006486 -5.42039575 -0.40652968 0 0 Z " fill="#EDF4ED" transform="translate(228,96)" data-index="26" style="opacity: 1; visibility: visible;"></path>
<path d="M0 0 C-1.06737018 3.09537351 -1.97518567 3.98455997 -4.8125 5.75 C-7.86558893 6.94728978 -9.77308179 7.28472808 -13 7 C-10.66265451 0.83790735 -6.22059253 -0.43399483 0 0 Z " fill="#F0F5F0" transform="translate(245,77)" data-index="27" style="opacity: 1; visibility: visible;"></path>
<path d="M0 0 C1.22589844 0.15275391 1.22589844 0.15275391 2.4765625 0.30859375 C3.41628906 0.43427734 3.41628906 0.43427734 4.375 0.5625 C4.375 1.2225 4.375 1.8825 4.375 2.5625 C1.85024538 3.82487731 0.06299534 3.66106404 -2.75 3.625 C-3.66007813 3.61597656 -4.57015625 3.60695313 -5.5078125 3.59765625 C-6.20648438 3.58605469 -6.90515625 3.57445313 -7.625 3.5625 C-7.295 2.5725 -6.965 1.5825 -6.625 0.5625 C-4.10446405 -0.69776798 -2.7707902 -0.35624445 0 0 Z " fill="#F1F6F1" transform="translate(202.625,111.4375)" data-index="28" style="opacity: 1; visibility: visible;"></path>
<path d="M0 0 C0.66 0 1.32 0 2 0 C3.4783226 2.95664519 3.06032783 5.74229737 3 9 C1.02 9.99 1.02 9.99 -1 11 C-1.02688151 9.35425434 -1.04634123 7.70838587 -1.0625 6.0625 C-1.07410156 5.14597656 -1.08570313 4.22945313 -1.09765625 3.28515625 C-1 1 -1 1 0 0 Z " fill="#F0F5F0" transform="translate(226,66)" data-index="29" style="opacity: 1; visibility: visible;"></path>
<path d="M0 0 C3 1 3 1 4 3 C4.06950541 4.54023996 4.08452357 6.08334988 4.0625 7.625 C4.05347656 8.44226562 4.04445312 9.25953125 4.03515625 10.1015625 C4.02355469 10.72804688 4.01195312 11.35453125 4 12 C3.34 12 2.68 12 2 12 C-0.60018816 8.09971775 -0.15085514 4.52565431 0 0 Z " fill="#F1F6F1" transform="translate(236,47)" data-index="30" style="opacity: 1; visibility: visible; stroke-width: 2px;"></path>
<path d="M0 0 C-0.47205119 4.24846075 -2.88877522 6.26819288 -6 9 C-6.66 9 -7.32 9 -8 9 C-6.52892562 2.38016529 -6.52892562 2.38016529 -4 0.5625 C-2 0 -2 0 0 0 Z " fill="#EBF3EB" transform="translate(257,53)" data-index="31" style="opacity: 1; visibility: visible;"></path>
<path d="M0 0 C0.66 0 1.32 0 2 0 C5.42857143 7.28571429 5.42857143 7.28571429 5 12 C0.02368421 7.18421053 0.02368421 7.18421053 -0.0625 2.875 C-0.041875 1.92625 -0.02125 0.9775 0 0 Z " fill="#EBF3EC" transform="translate(242,25)" data-index="32" style="opacity: 1; visibility: visible;"></path>
<path d="M0 0 C0.66 0 1.32 0 2 0 C1.125 6.75 1.125 6.75 0 9 C-0.99 8.67 -1.98 8.34 -3 8 C-2.25 2.25 -2.25 2.25 0 0 Z " fill="#F0F6F0" transform="translate(194,95)" data-index="33" style="opacity: 1; visibility: visible;"></path>
<path d="M0 0 C0.66 0 1.32 0 2 0 C2.3125 2.75 2.3125 2.75 2 6 C-0.5 8.375 -0.5 8.375 -3 10 C-2.25 3.375 -2.25 3.375 0 0 Z " fill="#EBF4EC" transform="translate(212,82)" data-index="34" style="opacity: 1; visibility: visible;"></path>
<path d="M0 0 C0.99 0.33 1.98 0.66 3 1 C2.34 2.32 1.68 3.64 1 5 C2.98 5 4.96 5 7 5 C7 5.33 7 5.66 7 6 C4.69 6 2.38 6 0 6 C-0.38218767 4.34385343 -0.71395102 2.67542976 -1 1 C-0.67 0.67 -0.34 0.34 0 0 Z " fill="#C5C5C5" transform="translate(153,165)" data-index="35" style="opacity: 1; stroke-width: 2px; visibility: visible;"></path>
<path d="M0 0 C0.86625 0.3403125 0.86625 0.3403125 1.75 0.6875 C1.75 1.3475 1.75 2.0075 1.75 2.6875 C-0.89 2.6875 -3.53 2.6875 -6.25 2.6875 C-2.80384615 -0.38942308 -2.80384615 -0.38942308 0 0 Z " fill="#616161" transform="translate(46.25,162.3125)" data-index="36"></path>
</svg>