<?xml version="1.0" encoding="UTF-8"?>
<svg version="1.1" xmlns="http://www.w3.org/2000/svg" width="149" height="127">
<path d="M0 0 C0.78979248 0.00539795 1.57958496 0.0107959 2.39331055 0.01635742 C9.76430141 0.20890886 14.71237458 2.22946279 20.8125 6.25 C23.75554541 7.80327397 24.89086126 7.30333423 28.0625 6.4375 C29.77485711 5.6565174 31.46323415 4.82103548 33.125 3.9375 C42.11409303 -0.82713483 53.21482336 -0.9372893 63.1171875 1.05078125 C69.56447772 3.38869639 75.19542231 7.65326619 80.0625 12.4375 C80.0625 13.0975 80.0625 13.7575 80.0625 14.4375 C80.7225 14.4375 81.3825 14.4375 82.0625 14.4375 C83.28125 16.15234375 83.28125 16.15234375 84.5625 18.375 C86.24704879 21.49182026 86.24704879 21.49182026 89.0625 23.4375 C89.5575 21.9525 89.5575 21.9525 90.0625 20.4375 C93.57083811 18.09860793 95.56678806 17.42097627 99.8125 17.5625 C103.0625 18.4375 103.0625 18.4375 105.0625 21.4375 C105.70233528 27.72921363 104.74115365 32.23164772 101.0625 37.4375 C99.1579626 39.2723592 97.16034794 40.81643568 95.0625 42.4375 C95.0625 43.0975 95.0625 43.7575 95.0625 44.4375 C96.0525 45.30375 96.0525 45.30375 97.0625 46.1875 C99.0625 48.4375 99.0625 48.4375 99.625 51.125 C98.70047046 56.56945174 96.62022543 61.60356685 92.01953125 64.90234375 C87.06650356 67.4375 87.06650356 67.4375 84.0625 67.4375 C85.0525 68.9225 85.0525 68.9225 86.0625 70.4375 C86.90018405 75.06680657 86.54633275 78.53895347 84.3125 82.6875 C80.31478736 86.86003972 74.37602439 88.52225835 69.0625 90.4375 C69.3925 91.0975 69.7225 91.7575 70.0625 92.4375 C70.4661227 96.07010431 70.35410681 97.93593628 68.5 101.125 C63.6587068 105.71802176 59.61567709 106.60831445 53.125 106.625 C51.43701707 106.5772912 49.74914786 106.5198499 48.0625 106.4375 C48.26875 107.51 48.475 108.5825 48.6875 109.6875 C49.0625 113.4375 49.0625 113.4375 48.5 115.6875 C45.49168751 119.34979347 41.6970263 120.30445416 37.1875 121.25 C32.94105718 121.63973089 28.97947829 121.16534871 25.0625 119.4375 C24.34707031 118.71433594 23.63164063 117.99117188 22.89453125 117.24609375 C19.72440209 115.22158368 19.30156644 115.24868513 15.8046875 115.921875 C14.17708308 116.32318612 12.55469676 116.74611424 10.9375 117.1875 C3.96011292 118.8874622 -2.70538545 120.37613614 -9.9375 119.4375 C-10.9375 118.4375 -10.9375 118.4375 -11 115.875 C-10.979375 115.070625 -10.95875 114.26625 -10.9375 113.4375 C-7.87503253 111.65340198 -5.71670727 111.20869979 -2.1875 111.3125 C-1.38828125 111.33054687 -0.5890625 111.34859375 0.234375 111.3671875 C0.83765625 111.39039062 1.4409375 111.41359375 2.0625 111.4375 C2.0625 110.7775 2.0625 110.1175 2.0625 109.4375 C0.144375 109.1590625 0.144375 109.1590625 -1.8125 108.875 C-10.99319551 106.81402754 -19.17438185 99.68787445 -24.9375 92.4375 C-31.70281543 81.62219982 -33.90226943 70.15798183 -35.41015625 57.6640625 C-35.83595613 54.44747871 -35.83595613 54.44747871 -36.96875 51.55859375 C-40.0625655 41.5910188 -38.75135543 29.66059818 -34.55078125 20.27734375 C-27.1951817 7.32935133 -14.84806698 -0.19472356 0 0 Z M-15.9375 11.4375 C-16.55753906 11.79585937 -17.17757813 12.15421875 -17.81640625 12.5234375 C-19.67480256 13.63064048 -19.67480256 13.63064048 -21.9375 15.4375 C-21.9375 16.0975 -21.9375 16.7575 -21.9375 17.4375 C-22.5975 17.4375 -23.2575 17.4375 -23.9375 17.4375 C-29.23585234 23.94525885 -31.62339876 31.11381724 -31.9375 39.4375 C-31.61403513 42.58652568 -30.96997497 45.44905856 -29.9375 48.4375 C-29.73382813 49.26636719 -29.53015625 50.09523437 -29.3203125 50.94921875 C-27.30312317 54.57901989 -24.20698716 55.68354058 -20.5625 57.3125 C-19.10151027 58.00626973 -17.64188301 58.70291551 -16.18359375 59.40234375 C-15.10053955 59.91643799 -15.10053955 59.91643799 -13.99560547 60.44091797 C-1.08482576 66.69261462 9.4459469 74.66484719 18.08984375 86.15234375 C20.0071655 88.37339964 21.36260181 89.38049288 24.0625 90.4375 C25.0525 89.7775 26.0425 89.1175 27.0625 88.4375 C30.76794587 88.23899397 33.53255387 88.26085129 37.0625 89.4375 C37.37703125 88.68984375 37.6915625 87.9421875 38.015625 87.171875 C38.44359375 86.18703125 38.8715625 85.2021875 39.3125 84.1875 C39.73015625 83.21296875 40.1478125 82.2384375 40.578125 81.234375 C42.11643491 78.33587528 43.48652183 76.46602171 46.0625 74.4375 C49.75 74.75 49.75 74.75 53.0625 75.4375 C55.27585833 73.22414167 54.89995708 68.42213103 55.26953125 65.41796875 C56.20817791 61.889952 57.07829405 60.52999076 60.0625 58.4375 C62.0425 58.4375 64.0225 58.4375 66.0625 58.4375 C66.0625 52.8275 66.0625 47.2175 66.0625 41.4375 C68.7025 40.4475 71.3425 39.4575 74.0625 38.4375 C73.83433594 37.82003906 73.60617188 37.20257813 73.37109375 36.56640625 C70.91089958 29.31821088 70.63814916 23.71055252 73.0625 16.4375 C66.44166629 10.16513122 59.61692189 7.23400612 50.4375 7 C42.77629941 7.27842581 37.90578843 8.87060075 31.9375 13.625 C29.42970022 15.57551094 28.14580247 16.41709939 25 17.1875 C21.32719651 16.24976294 19.63454755 14.4939829 16.88671875 11.97265625 C10.94321523 6.97094986 3.97645561 6.91349672 -3.52734375 7.08203125 C-8.28786137 7.57825932 -11.86573615 8.98944566 -15.9375 11.4375 Z M77.0625 24.4375 C76.72852213 27.31163125 76.72852213 27.31163125 77.0625 30.4375 C78.94327873 32.35006712 78.94327873 32.35006712 81.0625 33.4375 C81.3925 32.7775 81.7225 32.1175 82.0625 31.4375 C81.12671005 29.07768187 80.12902192 26.74118736 79.0625 24.4375 C78.4025 24.4375 77.7425 24.4375 77.0625 24.4375 Z M95.0625 25.4375 C93.43635949 27.11333188 93.43635949 27.11333188 91.875 29.25 C91.32457031 29.95769531 90.77414063 30.66539063 90.20703125 31.39453125 C89.64048828 32.40580078 89.64048828 32.40580078 89.0625 33.4375 C89.3925 34.4275 89.7225 35.4175 90.0625 36.4375 C93.2369176 35.34287324 94.05164157 34.45572665 95.8125 31.5 C97.2514485 28.52587279 97.2514485 28.52587279 97.0625 25.4375 C96.4025 25.4375 95.7425 25.4375 95.0625 25.4375 Z M71.0625 46.4375 C71.041875 47.71625 71.02125 48.995 71 50.3125 C70.98839844 51.03179687 70.97679688 51.75109375 70.96484375 52.4921875 C70.93600758 54.51935404 70.93600758 54.51935404 72.0625 56.4375 C73.0525 56.1075 74.0425 55.7775 75.0625 55.4375 C74.7325 52.7975 74.4025 50.1575 74.0625 47.4375 C73.0725 47.1075 72.0825 46.7775 71.0625 46.4375 Z M89.0625 51.4375 C87.01413118 52.00112302 87.01413118 52.00112302 85.0625 53.4375 C84.24665432 56.49658413 84.24665432 56.49658413 84.0625 59.4375 C85.0525 59.4375 86.0425 59.4375 87.0625 59.4375 C88.91552042 57.74473357 88.91552042 57.74473357 90.0625 55.4375 C89.84532648 53.22949472 89.84532648 53.22949472 89.0625 51.4375 Z M-19.9375 65.4375 C-15.68108537 70.84429697 -10.98345305 74.95744959 -5.609375 79.2421875 C-2.75333649 81.58881563 -0.19428941 84.08870155 2.375 86.73828125 C6.51904922 90.91110859 10.667821 94.98537318 16.0625 97.4375 C14.9717003 88.67993673 6.52793616 81.04527626 0.0625 75.4375 C-9.00500224 68.18275082 -9.00500224 68.18275082 -19.9375 65.4375 Z M60.0625 65.4375 C60.0625 68.0775 60.0625 70.7175 60.0625 73.4375 C61.0525 73.1075 62.0425 72.7775 63.0625 72.4375 C62.7325 70.1275 62.4025 67.8175 62.0625 65.4375 C61.4025 65.4375 60.7425 65.4375 60.0625 65.4375 Z M-25.9375 71.4375 C-24.1361751 82.13168154 -17.82218951 91.18428993 -9.10546875 97.484375 C-2.90294916 101.33805854 2.79129314 103.6492497 10.0625 104.4375 C8.47624527 100.00656178 4.93995667 97.53099167 1.4375 94.625 C-5.17719943 89.03643951 -11.51720659 83.21673792 -17.74462891 77.19995117 C-18.38062012 76.59256104 -19.01661133 75.9851709 -19.671875 75.359375 C-20.23100586 74.81893555 -20.79013672 74.27849609 -21.36621094 73.72167969 C-23.02473123 72.21092902 -23.02473123 72.21092902 -25.9375 71.4375 Z M68.0625 78.4375 C68.0625 79.4275 68.0625 80.4175 68.0625 81.4375 C72.83685464 81.09683687 72.83685464 81.09683687 77 79 C78.24993667 77.47677901 78.24993667 77.47677901 78.0625 75.4375 C73.73155042 75.4375 71.79215139 76.40314469 68.0625 78.4375 Z M46.0625 81.4375 C44.76616379 82.50395115 44.76616379 82.50395115 45 85 C45.020625 85.804375 45.04125 86.60875 45.0625 87.4375 C46.0525 87.1075 47.0425 86.7775 48.0625 86.4375 C48.0625 84.7875 48.0625 83.1375 48.0625 81.4375 C47.4025 81.4375 46.7425 81.4375 46.0625 81.4375 Z M28.0625 93.4375 C25.72858797 96.21864056 25.72858797 96.21864056 26.4375 99.125 C26.64375 99.888125 26.85 100.65125 27.0625 101.4375 C27.7225 101.1075 28.3825 100.7775 29.0625 100.4375 C29.72022428 97.40815509 29.72022428 97.40815509 30.0625 94.4375 C29.4025 94.1075 28.7425 93.7775 28.0625 93.4375 Z M49.0625 97.4375 C51.95627824 99.78812805 51.95627824 99.78812805 55.625 99.3125 C59.13051965 98.81914833 59.13051965 98.81914833 60.5 96.375 C60.685625 95.735625 60.87125 95.09625 61.0625 94.4375 C56.31042529 94.00549321 53.28039302 95.45260917 49.0625 97.4375 Z M31.0625 109.4375 C31.0625 110.7575 31.0625 112.0775 31.0625 113.4375 C36.14553686 113.55070856 36.14553686 113.55070856 41.0625 112.4375 C41.0625 111.7775 41.0625 111.1175 41.0625 110.4375 C38.77544169 109.29397084 37.46985238 109.33415561 34.9375 109.375 C33.019375 109.4059375 33.019375 109.4059375 31.0625 109.4375 Z " fill="#86C889" transform="translate(41.9375,1.5625)"/>
<path d="M0 0 C0.78979248 0.00539795 1.57958496 0.0107959 2.39331055 0.01635742 C9.76430141 0.20890886 14.71237458 2.22946279 20.8125 6.25 C23.75554541 7.80327397 24.89086126 7.30333423 28.0625 6.4375 C29.77485711 5.6565174 31.46323415 4.82103548 33.125 3.9375 C42.0853073 -0.81187706 53.33225268 -1.0347416 63.1875 1.12109375 C68.81108617 3.23872542 73.47847912 6.59614172 78.0625 10.4375 C76.7425 11.0975 75.4225 11.7575 74.0625 12.4375 C74.0625 14.4175 74.0625 16.3975 74.0625 18.4375 C73.4025 18.7675 72.7425 19.0975 72.0625 19.4375 C71.92908203 18.52871094 71.92908203 18.52871094 71.79296875 17.6015625 C70.86330652 14.847376 69.84928351 14.2735055 67.375 12.8125 C66.71113281 12.40773438 66.04726562 12.00296875 65.36328125 11.5859375 C57.86353038 7.84242858 49.9281064 7.27221258 41.72265625 8.90234375 C37.89247381 10.18412758 35.08606303 12.11682267 31.9375 14.625 C29.42970022 16.57551094 28.14580247 17.41709939 25 18.1875 C21.32719651 17.24976294 19.63454755 15.4939829 16.88671875 12.97265625 C10.94324522 7.9709751 3.97992805 7.91745336 -3.5234375 8.078125 C-8.2708667 8.57785439 -11.85700579 10.03771891 -15.9375 12.4375 C-16.9275 12.97375 -17.9175 13.51 -18.9375 14.0625 C-21.06369985 15.28682794 -21.06369985 15.28682794 -21.9375 17.4375 C-22.5975 17.4375 -23.2575 17.4375 -23.9375 17.4375 C-24.60536436 18.77023381 -25.27175494 20.10370626 -25.9375 21.4375 C-26.27910156 22.11167969 -26.62070312 22.78585938 -26.97265625 23.48046875 C-31.19012716 32.28423883 -31.46618987 39.09940954 -28.9375 48.4375 C-28.59763333 50.10284667 -28.26047514 51.76879513 -27.9375 53.4375 C-29.4225 53.9325 -29.4225 53.9325 -30.9375 54.4375 C-31.5975 54.1075 -32.2575 53.7775 -32.9375 53.4375 C-32.66346111 62.45337963 -31.51507225 69.93129951 -28.6796875 78.4765625 C-27.95408146 81.3713487 -27.88272001 82.70041268 -28.9375 85.4375 C-32.09284232 77.41299998 -33.73231494 69.6265393 -34.89770508 61.11401367 C-35.3726575 57.7110695 -35.8602791 54.65890457 -36.99609375 51.40234375 C-40.12660394 41.5431851 -38.70168568 29.54964575 -34.55078125 20.27734375 C-27.1951817 7.32935133 -14.84806698 -0.19472356 0 0 Z " fill="#A3D2A5" transform="translate(41.9375,1.5625)"/>
<path d="M0 0 C2.4972176 3.74582639 2.61925767 6.66519631 2 11 C0.05806442 17.00234633 -3.10350591 20.21634548 -8 24 C-8 24.66 -8 25.32 -8 26 C-7.34 26.5775 -6.68 27.155 -6 27.75 C-4 30 -4 30 -3.4375 32.6875 C-4.36202954 38.13195174 -6.44227457 43.16606685 -11.04296875 46.46484375 C-15.99599644 49 -15.99599644 49 -19 49 C-18.34 49.99 -17.68 50.98 -17 52 C-16.16231595 56.62930657 -16.51616725 60.10145347 -18.75 64.25 C-22.74771264 68.42253972 -28.68647561 70.08475835 -34 72 C-33.505 72.99 -33.505 72.99 -33 74 C-32.5963773 77.63260431 -32.70839319 79.49843628 -34.5625 82.6875 C-39.4037932 87.28052176 -43.44682291 88.17081445 -49.9375 88.1875 C-51.62548293 88.1397912 -53.31335214 88.0823499 -55 88 C-55.495 88.99 -55.495 88.99 -56 90 C-56 89.01 -56 88.02 -56 87 C-55.43410156 86.87882812 -54.86820312 86.75765625 -54.28515625 86.6328125 C-53.55167969 86.46523437 -52.81820312 86.29765625 -52.0625 86.125 C-51.33160156 85.96257812 -50.60070312 85.80015625 -49.84765625 85.6328125 C-47.79299706 85.17038477 -47.79299706 85.17038477 -47 83 C-49.64 82.34 -52.28 81.68 -55 81 C-55 79.68 -55 78.36 -55 77 C-49.25472393 74.70188957 -43.96422183 74.01192606 -38 76 C-37.855625 75.05125 -37.71125 74.1025 -37.5625 73.125 C-36 70 -36 70 -33.86328125 69.15625 C-31.57773573 68.66828424 -29.3201228 68.27688708 -27 68 C-27 67.34 -27 66.68 -27 66 C-25.02 65.505 -25.02 65.505 -23 65 C-22.505 63.02 -22.505 63.02 -22 61 C-24.97 61.495 -24.97 61.495 -28 62 C-27.01 60.35 -26.02 58.7 -25 57 C-27.64 57.66 -30.28 58.32 -33 59 C-33 58.01 -33 57.02 -33 56 C-31.54207116 55.94600264 -30.08357288 55.90720823 -28.625 55.875 C-27.81289062 55.85179687 -27.00078125 55.82859375 -26.1640625 55.8046875 C-24 56 -24 56 -22 58 C-21.01 57.67 -20.02 57.34 -19 57 C-19 56.34 -19 55.68 -19 55 C-19.66 55 -20.32 55 -21 55 C-21 52.69 -21 50.38 -21 48 C-20.38125 47.71125 -19.7625 47.4225 -19.125 47.125 C-16.86674235 46.06279958 -16.86674235 46.06279958 -15 44 C-14.01 44 -13.02 44 -12 44 C-12 43.01 -12 42.02 -12 41 C-12.86625 41.495 -12.86625 41.495 -13.75 42 C-16 43 -16 43 -20 43 C-19.67 39.04 -19.34 35.08 -19 31 C-16.69 30.67 -14.38 30.34 -12 30 C-10.41678933 24.52225234 -10.41678933 24.52225234 -9 19 C-10.98 19 -12.96 19 -15 19 C-15 16.36 -15 13.72 -15 11 C-14.34 11 -13.68 11 -13 11 C-13 9.68 -13 8.36 -13 7 C-14.32 6.67 -15.64 6.34 -17 6 C-16.67 5.34 -16.34 4.68 -16 4 C-15.34 4.33 -14.68 4.66 -14 5 C-13.67 4.01 -13.34 3.02 -13 2 C-8.40421291 -1.06385806 -5.32137841 -1.4326788 0 0 Z M-8 7 C-9.62614051 8.67583188 -9.62614051 8.67583188 -11.1875 10.8125 C-11.73792969 11.52019531 -12.28835937 12.22789063 -12.85546875 12.95703125 C-13.42201172 13.96830078 -13.42201172 13.96830078 -14 15 C-13.67 15.99 -13.34 16.98 -13 18 C-9.8255824 16.90537324 -9.01085843 16.01822665 -7.25 13.0625 C-5.8110515 10.08837279 -5.8110515 10.08837279 -6 7 C-6.66 7 -7.32 7 -8 7 Z M-14 33 C-16.04836882 33.56362302 -16.04836882 33.56362302 -18 35 C-18.81584568 38.05908413 -18.81584568 38.05908413 -19 41 C-18.01 41 -17.02 41 -16 41 C-14.14697958 39.30723357 -14.14697958 39.30723357 -13 37 C-13.21717352 34.79199472 -13.21717352 34.79199472 -14 33 Z M-54 79 C-51.10622176 81.35062805 -51.10622176 81.35062805 -47.4375 80.875 C-43.93198035 80.38164833 -43.93198035 80.38164833 -42.5625 77.9375 C-42.376875 77.298125 -42.19125 76.65875 -42 76 C-46.75207471 75.56799321 -49.78210698 77.01510917 -54 79 Z " fill="#98CD9B" transform="translate(145,20)"/>
<path d="M0 0 C11.37238531 3.43003129 23.17609136 11.48056502 29 22 C27.68 22 26.36 22 25 22 C26.1858237 25.37503669 27.27573689 27.64722731 30 30 C29.505 31.485 29.505 31.485 29 33 C28.46632812 32.31035156 27.93265625 31.62070313 27.3828125 30.91015625 C18.36544887 19.53704537 9.06652968 10.48119446 -5 6 C0.89487268 11.43310766 6.78782374 16.8565564 12.8515625 22.1015625 C16.27632373 25.12780606 19.62232091 28.24074517 22.96484375 31.35742188 C25.76290569 33.98217364 25.76290569 33.98217364 29 36 C29.66 35.34 30.32 34.68 31 34 C31 35.32 31 36.64 31 38 C28.03 37.34 25.06 36.68 22 36 C21.67 37.32 21.34 38.64 21 40 C12.47670357 32.84842159 4.20618603 25.4971295 -3.84375 17.81420898 C-4.48828125 17.20134033 -5.1328125 16.58847168 -5.796875 15.95703125 C-6.36760742 15.41022705 -6.93833984 14.86342285 -7.52636719 14.30004883 C-8.98652463 12.899923 -8.98652463 12.899923 -11 12 C-11 13.32 -11 14.64 -11 16 C-11.66 16 -12.32 16 -13 16 C-13 13.69 -13 11.38 -13 9 C-10.03 9.495 -10.03 9.495 -7 10 C-7.350625 9.401875 -7.70125 8.80375 -8.0625 8.1875 C-9 6 -9 6 -8 3 C-5.03 3 -2.06 3 1 3 C0.67 2.01 0.34 1.02 0 0 Z " fill="#99CE9B" transform="translate(28,62)"/>
<path d="M0 0 C0.46148438 0.36351563 0.92296875 0.72703125 1.3984375 1.1015625 C9.73975902 7.5306443 17.68540241 12.49816144 28 15 C27.34 13.68 26.68 12.36 26 11 C27.32 11 28.64 11 30 11 C30 12.65 30 14.3 30 16 C27.69 16.66 25.38 17.32 23 18 C23 19.32 23 20.64 23 22 C18.126739 23.5912689 14.19209404 24.21192221 9 24 C9.33 25.32 9.66 26.64 10 28 C11.258125 27.87625 12.51625 27.7525 13.8125 27.625 C14.52019531 27.55539063 15.22789063 27.48578125 15.95703125 27.4140625 C18.29988142 27.07334609 18.29988142 27.07334609 21 25 C23.50357861 25.8345262 25.66785852 26.79371992 28 28 C21.26899933 29.76550837 14.96874933 30.5351004 8 30 C7 29 7 29 6.9375 26.4375 C6.958125 25.633125 6.97875 24.82875 7 24 C10.06246747 22.21590198 12.22079273 21.77119979 15.75 21.875 C16.54921875 21.89304687 17.3484375 21.91109375 18.171875 21.9296875 C18.77515625 21.95289062 19.3784375 21.97609375 20 22 C20 21.34 20 20.68 20 20 C18.72125 19.814375 17.4425 19.62875 16.125 19.4375 C7.04523173 17.40706363 0.54726421 11.15305122 -5 4 C-2.97954558 4.60183749 -0.97888961 5.27306096 1 6 C1.33 6.66 1.66 7.32 2 8 C2.33 7.34 2.66 6.68 3 6 C2.01 5.34 1.02 4.68 0 4 C0 2.68 0 1.36 0 0 Z " fill="#9DCE9F" transform="translate(24,91)"/>
<path d="M0 0 C8.21324503 -0.61986755 8.21324503 -0.61986755 11.0625 1.625 C12.21590497 4.54695926 12.21231713 6.88601543 12 10 C10.3970947 10.81498562 8.79262722 11.62689927 7.1875 12.4375 C6.29417969 12.88996094 5.40085937 13.34242187 4.48046875 13.80859375 C2 15 2 15 -1 16 C-0.67 16.66 -0.34 17.32 0 18 C0.4036227 21.63260431 0.29160681 23.49843628 -1.5625 26.6875 C-6.4037932 31.28052176 -10.44682291 32.17081445 -16.9375 32.1875 C-18.62548293 32.1397912 -20.31335214 32.0823499 -22 32 C-22.33 32.66 -22.66 33.32 -23 34 C-23 33.01 -23 32.02 -23 31 C-22.43410156 30.87882812 -21.86820312 30.75765625 -21.28515625 30.6328125 C-20.55167969 30.46523437 -19.81820312 30.29765625 -19.0625 30.125 C-18.33160156 29.96257812 -17.60070312 29.80015625 -16.84765625 29.6328125 C-14.79299706 29.17038477 -14.79299706 29.17038477 -14 27 C-16.64 26.34 -19.28 25.68 -22 25 C-22 23.68 -22 22.36 -22 21 C-16.25472393 18.70188957 -10.96422183 18.01192606 -5 20 C-4.7834375 18.576875 -4.7834375 18.576875 -4.5625 17.125 C-3 14 -3 14 -0.86328125 13.15625 C1.42226427 12.66828424 3.6798772 12.27688708 6 12 C6 11.34 6 10.68 6 10 C7.32 9.67 8.64 9.34 10 9 C10.33 7.68 10.66 6.36 11 5 C9.02 5.33 7.04 5.66 5 6 C5.99 4.35 6.98 2.7 8 1 C5.36 1.66 2.72 2.32 0 3 C0 2.01 0 1.02 0 0 Z M-21 23 C-18.10622176 25.35062805 -18.10622176 25.35062805 -14.4375 24.875 C-10.93198035 24.38164833 -10.93198035 24.38164833 -9.5625 21.9375 C-9.376875 21.298125 -9.19125 20.65875 -9 20 C-13.75207471 19.56799321 -16.78210698 21.01510917 -21 23 Z " fill="#9FD2A2" transform="translate(112,76)"/>
<path d="M0 0 C0.99 0.33 1.98 0.66 3 1 C2.34 1 1.68 1 1 1 C1.77030122 4.48809191 1.77030122 4.48809191 3 8 C3.99 8.33 4.98 8.66 6 9 C6 9.66 6 10.32 6 11 C3.69 10.67 1.38 10.34 -1 10 C-0.67 6.7 -0.34 3.4 0 0 Z M-4 9 C-3.01 9.33 -2.02 9.66 -1 10 C-0.625 12.75 -0.625 12.75 -1 16 C-5.84210526 20 -5.84210526 20 -9 20 C-8.67 24.29 -8.34 28.58 -8 33 C-7.26712183 29.33560916 -6.60012364 25.68647378 -6 22 C-3.5625 22.375 -3.5625 22.375 -1 23 C0.20272819 25.40545638 0.10071472 26.94996953 0.0625 29.625 C0.05347656 30.44226563 0.04445313 31.25953125 0.03515625 32.1015625 C0.02355469 32.72804688 0.01195313 33.35453125 0 34 C-1.98 34.66 -3.96 35.32 -6 36 C-6 36.66 -6 37.32 -6 38 C-9.02734375 37.609375 -9.02734375 37.609375 -12.0546875 37.21875 C-14.96753514 36.81039531 -14.96753514 36.81039531 -17.5 38.0625 C-19.61802743 40.79828544 -20.1842997 43.67445262 -21 47 C-21.33 47 -21.66 47 -22 47 C-21.75828822 42.24633498 -21.611193 39.8556702 -18.8125 35.9375 C-16 34 -16 34 -12.6875 34.1875 C-11.800625 34.455625 -10.91375 34.72375 -10 35 C-10.33 34.34 -10.66 33.68 -11 33 C-11.20264068 30.50172991 -11.32323445 28.0637172 -11.375 25.5625 C-11.41238281 24.88123047 -11.44976562 24.19996094 -11.48828125 23.49804688 C-11.5234375 21.50390625 -11.5234375 21.50390625 -11 18 C-8.38348212 15.86040595 -6.19570685 15.06523562 -3 14 C-3.33 12.35 -3.66 10.7 -4 9 Z M-5 23 C-5.020625 24.27875 -5.04125 25.5575 -5.0625 26.875 C-5.07410156 27.59429687 -5.08570312 28.31359375 -5.09765625 29.0546875 C-5.12649242 31.08185404 -5.12649242 31.08185404 -4 33 C-3.01 32.67 -2.02 32.34 -1 32 C-1.33 29.36 -1.66 26.72 -2 24 C-2.99 23.67 -3.98 23.34 -5 23 Z " fill="#A9D2AB" transform="translate(118,25)"/>
<path d="M0 0 C1.2065625 0.0309375 1.2065625 0.0309375 2.4375 0.0625 C2.7675 1.0525 3.0975 2.0425 3.4375 3.0625 C4.0975 3.0625 4.7575 3.0625 5.4375 3.0625 C6.0975 4.7125 6.7575 6.3625 7.4375 8.0625 C6.1175 7.7325 4.7975 7.4025 3.4375 7.0625 C3.4375 7.7225 3.4375 8.3825 3.4375 9.0625 C4.0975 9.3925 4.7575 9.7225 5.4375 10.0625 C5.1075 10.7225 4.7775 11.3825 4.4375 12.0625 C4.7675 13.01125 5.0975 13.96 5.4375 14.9375 C6.42378602 18.01964382 6.56604688 19.12827811 5.4375 22.0625 C2.4375 15.4375 2.4375 15.4375 2.4375 12.0625 C1.4475 12.0625 0.4575 12.0625 -0.5625 12.0625 C-0.52125 13.34125 -0.48 14.62 -0.4375 15.9375 C-0.3671875 18.1171875 -0.3671875 18.1171875 -0.5625 20.0625 C-1.2225 20.7225 -1.8825 21.3825 -2.5625 22.0625 C-3.5525 21.7325 -4.5425 21.4025 -5.5625 21.0625 C-5.75801338 19.45929026 -5.94361983 17.85487014 -6.125 16.25 C-6.28162109 14.91001953 -6.28162109 14.91001953 -6.44140625 13.54296875 C-6.5625 11.0625 -6.5625 11.0625 -5.5625 8.0625 C-4.9025 7.7325 -4.2425 7.4025 -3.5625 7.0625 C-3.583125 6.093125 -3.60375 5.12375 -3.625 4.125 C-3.54257968 0.08640438 -3.54257968 0.08640438 0 0 Z " fill="#8FCB92" transform="translate(118.5625,12.9375)"/>
<path d="M0 0 C0.66 0 1.32 0 2 0 C1.34 1.98 0.68 3.96 0 6 C-0.66 6 -1.32 6 -2 6 C-2 7.98 -2 9.96 -2 12 C-2.66 12 -3.32 12 -4 12 C-4.0501123 12.7520874 -4.10022461 13.5041748 -4.15185547 14.27905273 C-4.383049 17.66595938 -4.62882323 21.05165088 -4.875 24.4375 C-4.95363281 25.62150391 -5.03226563 26.80550781 -5.11328125 28.02539062 C-5.19707031 29.15009766 -5.28085938 30.27480469 -5.3671875 31.43359375 C-5.44050293 32.47572021 -5.51381836 33.51784668 -5.58935547 34.59155273 C-5.72486816 35.38634033 -5.86038086 36.18112793 -6 37 C-6.99 37.495 -6.99 37.495 -8 38 C-12.1171254 30.69184574 -10.97366457 19.58411808 -9.27734375 11.59765625 C-7.62636765 7.04577478 -7.62636765 7.04577478 -6 5 C-4.33911318 4.31906153 -2.67274589 3.65126294 -1 3 C-0.67 2.01 -0.34 1.02 0 0 Z " fill="#94CA96" transform="translate(15,14)"/>
<path d="M0 0 C0 0.66 0 1.32 0 2 C-0.99 2 -1.98 2 -3 2 C-2.65555119 4.47266765 -2.65555119 4.47266765 -2 7 C-1.34 7.33 -0.68 7.66 0 8 C-0.969375 8.61875 -1.93875 9.2375 -2.9375 9.875 C-6.02835362 11.65678846 -6.02835362 11.65678846 -7 14 C-7.66 14 -8.32 14 -9 14 C-9.309375 14.61875 -9.61875 15.2375 -9.9375 15.875 C-10.625 17.25 -11.3125 18.625 -12 20 C-12.66 20 -13.32 20 -14 20 C-14 18.35 -14 16.7 -14 15 C-13.34 14.67 -12.68 14.34 -12 14 C-11.27840576 12.35636866 -10.60648579 10.68949614 -10 9 C-10.99 9.495 -10.99 9.495 -12 10 C-12 10.99 -12 11.98 -12 13 C-13.32 13 -14.64 13 -16 13 C-13.60178766 7.53018565 -6.33833448 0 0 0 Z " fill="#A2D3A4" transform="translate(27,5)"/>
<path d="M0 0 C3.37462715 0.54723683 5.08235 1.0549 8 3 C8 3.99 8 4.98 8 6 C8.66 6 9.32 6 10 6 C10 4.35 10 2.7 10 1 C14.43379675 3.21689838 16.46636932 5.77728219 19 10 C17.68 10 16.36 10 15 10 C16.1858237 13.37503669 17.27573689 15.64722731 20 18 C19.67 18.99 19.34 19.98 19 21 C18.19949219 19.96552734 18.19949219 19.96552734 17.3828125 18.91015625 C12.59767201 12.8749185 7.73673104 7.69717328 1.87109375 2.6796875 C1.25363281 2.12539062 0.63617188 1.57109375 0 1 C0 0.67 0 0.34 0 0 Z " fill="#A1D1A4" transform="translate(38,74)"/>
<path d="M0 0 C0 0.99 0 1.98 0 3 C3.3 3 6.6 3 10 3 C8.02 3.99 8.02 3.99 6 5 C2.46390079 6.92878139 -0.53643425 8.59296666 -3.5625 11.25 C-6.57336566 13.41164714 -8.37430333 13.33727411 -12 13 C-12.33 12.34 -12.66 11.68 -13 11 C-11.02 10.34 -9.04 9.68 -7 9 C-8.65 7.68 -10.3 6.36 -12 5 C-11.67 4.34 -11.34 3.68 -11 3 C-9.33871537 2.64080332 -7.67099977 2.31088368 -6 2 C-1.88235294 0 -1.88235294 0 0 0 Z " fill="#A0D2A3" transform="translate(76,6)"/>
<path d="M0 0 C6.1135577 -0.78045417 9.12329967 0.95877119 14.08203125 4.4921875 C16 6 16 6 18 8 C18.125 11.125 18.125 11.125 18 14 C17.34 14 16.68 14 16 14 C16 13.01 16 12.02 16 11 C13.48910934 9.59390123 11.39698917 8.85747017 8.5625 8.1875 C4.51644917 6.83881639 2.69153202 5.26246306 0 2 C0 1.34 0 0.68 0 0 Z " fill="#8BC78D" transform="translate(30,66)"/>
<path d="M0 0 C0 0.66 0 1.32 0 2 C-1.53720703 2.09087891 -1.53720703 2.09087891 -3.10546875 2.18359375 C-4.46615695 2.26805026 -5.82683343 2.35269567 -7.1875 2.4375 C-7.86103516 2.47681641 -8.53457031 2.51613281 -9.22851562 2.55664062 C-12.89699102 2.78927565 -16.41694206 3.17207011 -20 4 C-20.33 4.99 -20.66 5.98 -21 7 C-21.99 7.33 -22.98 7.66 -24 8 C-25.125 4.25 -25.125 4.25 -24 2 C-23.01 2 -22.02 2 -21 2 C-21 1.34 -21 0.68 -21 0 C-5.96954315 -3.97969543 -5.96954315 -3.97969543 0 0 Z " fill="#85C689" transform="translate(48,5)"/>
<path d="M0 0 C1.216875 0.268125 2.43375 0.53625 3.6875 0.8125 C3.6875 1.4725 3.6875 2.1325 3.6875 2.8125 C0.7175 2.8125 -2.2525 2.8125 -5.3125 2.8125 C-5.3125 3.8025 -5.3125 4.7925 -5.3125 5.8125 C-3.9925 6.1425 -2.6725 6.4725 -1.3125 6.8125 C-1.125 10.1875 -1.125 10.1875 -1.3125 13.8125 C-4.3125 15.8125 -4.3125 15.8125 -7.3125 15.8125 C-7.6425 13.8325 -7.9725 11.8525 -8.3125 9.8125 C-8.6425 10.8025 -8.9725 11.7925 -9.3125 12.8125 C-10.3025 13.1425 -11.2925 13.4725 -12.3125 13.8125 C-8.34635402 -0.98799597 -8.34635402 -0.98799597 0 0 Z M-4.3125 7.8125 C-5.60883621 8.87895115 -5.60883621 8.87895115 -5.375 11.375 C-5.354375 12.179375 -5.33375 12.98375 -5.3125 13.8125 C-4.3225 13.4825 -3.3325 13.1525 -2.3125 12.8125 C-2.3125 11.1625 -2.3125 9.5125 -2.3125 7.8125 C-2.9725 7.8125 -3.6325 7.8125 -4.3125 7.8125 Z " fill="#9DCFA0" transform="translate(92.3125,75.1875)"/>
<path d="M0 0 C0 0.99 0 1.98 0 3 C1.32 3.33 2.64 3.66 4 4 C4.125 10.75 4.125 10.75 3 13 C2.01 12.67 1.02 12.34 0 12 C0.66 11.67 1.32 11.34 2 11 C2.65555119 8.47266765 2.65555119 8.47266765 3 6 C-0.39417765 9.12621626 -2.6062718 11.56541027 -4 16 C-3.34 16.66 -2.68 17.32 -2 18 C-3.32 18 -4.64 18 -6 18 C-6 15.36 -6 12.72 -6 10 C-5.34 10 -4.68 10 -4 10 C-4 8.68 -4 7.36 -4 6 C-5.32 5.67 -6.64 5.34 -8 5 C-7.67 4.34 -7.34 3.68 -7 3 C-6.34 3.33 -5.68 3.66 -5 4 C-4.67 3.01 -4.34 2.02 -4 1 C-2 0 -2 0 0 0 Z " fill="#9DD09F" transform="translate(136,21)"/>
<path d="M0 0 C2.61521526 2.87673679 3.95427258 4.83423809 5 8.625 C6.06971186 12.23527754 6.79766042 13.18534091 10 15 C9.34 15 8.68 15 8 15 C7.67 15.66 7.34 16.32 7 17 C6.67 16.01 6.34 15.02 6 14 C4.906875 13.731875 3.81375 13.46375 2.6875 13.1875 C-1.83466589 11.73120929 -2.84586339 10.13594229 -5 6 C-5 5.34 -5 4.68 -5 4 C-3.68 4 -2.36 4 -1 4 C-0.67 2.68 -0.34 1.36 0 0 Z " fill="#9BCE9E" transform="translate(19,83)"/>
<path d="M0 0 C0 0.66 0 1.32 0 2 C-3.3 2 -6.6 2 -10 2 C-10.33 2.66 -10.66 3.32 -11 4 C-9.35 4.33 -7.7 4.66 -6 5 C-6.99 7.97 -7.98 10.94 -9 14 C-10.32 13.67 -11.64 13.34 -13 13 C-13 11.35 -13 9.7 -13 8 C-13.66 7.67 -14.32 7.34 -15 7 C-14.67 6.01 -14.34 5.02 -14 4 C-15.32 3.34 -16.64 2.68 -18 2 C-17.67 1.34 -17.34 0.68 -17 0 C-15.68 0 -14.36 0 -13 0 C-9.03230578 -1.98384711 -4.14470514 -1.32630565 0 0 Z M-10 5 C-12.33391203 7.78114056 -12.33391203 7.78114056 -11.625 10.6875 C-11.41875 11.450625 -11.2125 12.21375 -11 13 C-10.34 12.67 -9.68 12.34 -9 12 C-8.34227572 8.97065509 -8.34227572 8.97065509 -8 6 C-8.66 5.67 -9.32 5.34 -10 5 Z " fill="#ACD8AE" transform="translate(80,90)"/>
<path d="M0 0 C1.32 0 2.64 0 4 0 C4 1.32 4 2.64 4 4 C-0.0527516 4.98248524 -3.83861737 5.08159574 -8 5 C-7.67 6.32 -7.34 7.64 -7 9 C-5.741875 8.87625 -4.48375 8.7525 -3.1875 8.625 C-2.47980469 8.55539063 -1.77210937 8.48578125 -1.04296875 8.4140625 C1.29988142 8.07334609 1.29988142 8.07334609 4 6 C6.50357861 6.8345262 8.66785852 7.79371992 11 9 C4.26899933 10.76550837 -2.03125067 11.5351004 -9 11 C-10 10 -10 10 -10.0625 7.4375 C-10.041875 6.633125 -10.02125 5.82875 -10 5 C-6.93753253 3.21590198 -4.77920727 2.77119979 -1.25 2.875 C-0.45078125 2.89304687 0.3484375 2.91109375 1.171875 2.9296875 C1.77515625 2.95289062 2.3784375 2.97609375 3 3 C3 2.34 3 1.68 3 1 C2.01 0.67 1.02 0.34 0 0 Z " fill="#B3D9B5" transform="translate(41,110)"/>
<path d="M0 0 C8.21324503 -0.61986755 8.21324503 -0.61986755 11.0625 1.625 C12.21590497 4.54695926 12.21231713 6.88601543 12 10 C10.3970947 10.81498562 8.79262722 11.62689927 7.1875 12.4375 C5.84751953 13.11619141 5.84751953 13.11619141 4.48046875 13.80859375 C2 15 2 15 -1 16 C-1.33 16.66 -1.66 17.32 -2 18 C-2.33 16.68 -2.66 15.36 -3 14 C-0.03 13.34 2.94 12.68 6 12 C6 11.34 6 10.68 6 10 C7.32 9.67 8.64 9.34 10 9 C10.33 7.68 10.66 6.36 11 5 C9.02 5.33 7.04 5.66 5 6 C5.99 4.35 6.98 2.7 8 1 C5.36 1.66 2.72 2.32 0 3 C0 2.01 0 1.02 0 0 Z " fill="#ABD7AE" transform="translate(112,76)"/>
<path d="M0 0 C0 0.66 0 1.32 0 2 C0.66 2.33 1.32 2.66 2 3 C1.67 3.66 1.34 4.32 1 5 C-6.30434783 5.36521739 -6.30434783 5.36521739 -9.5 3.6875 C-11 2 -11 2 -11 -1 C-6.74938644 -2.41687119 -4.28148375 -1.19320039 0 0 Z " fill="#8DCA91" transform="translate(40,103)"/>
<path d="M0 0 C1.98 1.32 3.96 2.64 6 4 C4.02 4.99 4.02 4.99 2 6 C2 7.98 2 9.96 2 12 C1.01 12.495 1.01 12.495 0 13 C-0.08378906 12.39414062 -0.16757813 11.78828125 -0.25390625 11.1640625 C-1.22524068 8.34668411 -2.37247807 7.81289656 -4.9375 6.375 C-7.32419292 5.01488825 -9.04330487 3.95669513 -11 2 C-8.69 2 -6.38 2 -4 2 C-4 2.66 -4 3.32 -4 4 C-3.01 4 -2.02 4 -1 4 C-0.67 2.68 -0.34 1.36 0 0 Z " fill="#A3D2A5" transform="translate(114,8)"/>
<path d="M0 0 C3.5 0.1875 3.5 0.1875 7 1 C9.48956012 4.73434018 9.64412758 7.67514342 9 12 C6.3164557 19.34177215 6.3164557 19.34177215 3 21 C3 19.68 3 18.36 3 17 C3.66 17 4.32 17 5 17 C5 15.68 5 14.36 5 13 C5.66 13 6.32 13 7 13 C6.67 10.36 6.34 7.72 6 5 C5.01 4.67 4.02 4.34 3 4 C3 3.34 3 2.68 3 2 C1.35 2 -0.3 2 -2 2 C-1.34 1.34 -0.68 0.68 0 0 Z " fill="#B0D7B0" transform="translate(138,19)"/>
<path d="M0 0 C2.4375 0.375 2.4375 0.375 5 1 C6.20272819 3.40545638 6.10071472 4.94996953 6.0625 7.625 C6.05347656 8.44226562 6.04445313 9.25953125 6.03515625 10.1015625 C6.02355469 10.72804688 6.01195313 11.35453125 6 12 C4.02 12.66 2.04 13.32 0 14 C0 14.66 0 15.32 0 16 C-0.66 16 -1.32 16 -2 16 C-2.625 14.125 -2.625 14.125 -3 12 C-2.34 11.34 -1.68 10.68 -1 10 C-0.53837573 7.56747339 -0.53837573 7.56747339 -0.375 4.875 C-0.30023438 3.96492188 -0.22546875 3.05484375 -0.1484375 2.1171875 C-0.09945312 1.41851562 -0.05046875 0.71984375 0 0 Z M1 1 C0.979375 2.27875 0.95875 3.5575 0.9375 4.875 C0.92589844 5.59429687 0.91429688 6.31359375 0.90234375 7.0546875 C0.87350758 9.08185404 0.87350758 9.08185404 2 11 C2.99 10.67 3.98 10.34 5 10 C4.67 7.36 4.34 4.72 4 2 C3.01 1.67 2.02 1.34 1 1 Z M-8 14 C-6.35 14 -4.7 14 -3 14 C-3 14.33 -3 14.66 -3 15 C-4.65 15 -6.3 15 -8 15 C-8 14.67 -8 14.34 -8 14 Z " fill="#A7D6A9" transform="translate(112,47)"/>
<path d="M0 0 C0.66 0 1.32 0 2 0 C2 6.27 2 12.54 2 19 C1.34 19.33 0.68 19.66 0 20 C-1.64838944 16.70322112 -1.14272738 13.05683956 -1.125 9.4375 C-1.12886719 8.64408203 -1.13273438 7.85066406 -1.13671875 7.03320312 C-1.12663067 1.12663067 -1.12663067 1.12663067 0 0 Z " fill="#84C787" transform="translate(7,32)"/>
<path d="M0 0 C5.75 1.75 5.75 1.75 8 4 C5 5 5 5 2.3125 3.6875 C1.549375 3.130625 0.78625 2.57375 0 2 C0 1.34 0 0.68 0 0 Z M-8 3 C0.77578475 3.03408072 0.77578475 3.03408072 3.77734375 5.40234375 C5.125 7.0625 5.125 7.0625 7 10 C1.46153846 8.23776224 1.46153846 8.23776224 -1.0625 6.9375 C-3.34051656 5.83523392 -5.51297909 5.41450348 -8 5 C-8 4.34 -8 3.68 -8 3 Z " fill="#ABD7AD" transform="translate(28,62)"/>
<path d="M0 0 C2.25 -0.3125 2.25 -0.3125 5 0 C7.53838677 2.60889751 8.84740317 4.54220951 10 8 C12.00016466 9.20882096 12.00016466 9.20882096 14 10 C10.625 9.6875 10.625 9.6875 7 9 C6.34 8.01 5.68 7.02 5 6 C2.94074861 5.27617533 2.94074861 5.27617533 1 5 C0.67 3.35 0.34 1.7 0 0 Z " fill="#90C993" transform="translate(53,84)"/>
<path d="M0 0 C1.65 0 3.3 0 5 0 C5 0.66 5 1.32 5 2 C6.32 2.33 7.64 2.66 9 3 C9 5.31 9 7.62 9 10 C8.01 10 7.02 10 6 10 C5.6596875 8.824375 5.6596875 8.824375 5.3125 7.625 C4.21875 4.78125 4.21875 4.78125 1.375 3.6875 C0.59125 3.460625 -0.1925 3.23375 -1 3 C-0.67 2.01 -0.34 1.02 0 0 Z " fill="#83C886" transform="translate(136,21)"/>
<path d="M0 0 C4 1 4 1 6 3 C6.30078125 4.875 6.30078125 4.875 6.3125 7 C6.32925781 7.70125 6.34601563 8.4025 6.36328125 9.125 C6.18345703 10.053125 6.18345703 10.053125 6 11 C5.01 11.66 4.02 12.32 3 13 C2.01 12.67 1.02 12.34 0 12 C0 8.04 0 4.08 0 0 Z M1 2 C1 4.64 1 7.28 1 10 C1.99 9.67 2.98 9.34 4 9 C3.67 6.69 3.34 4.38 3 2 C2.34 2 1.68 2 1 2 Z " fill="#AFDBB2" transform="translate(101,65)"/>
<path d="M0 0 C0.99 0.33 1.98 0.66 3 1 C2.34 1 1.68 1 1 1 C1.77030122 4.48809191 1.77030122 4.48809191 3 8 C3.99 8.33 4.98 8.66 6 9 C6 9.66 6 10.32 6 11 C3.69 10.67 1.38 10.34 -1 10 C-0.67 6.7 -0.34 3.4 0 0 Z M-4 9 C-3.01 9.33 -2.02 9.66 -1 10 C-1 11.98 -1 13.96 -1 16 C-3.64 16.33 -6.28 16.66 -9 17 C-6 15 -6 15 -3 14 C-3.33 12.35 -3.66 10.7 -4 9 Z " fill="#B9E1BB" transform="translate(118,25)"/>
<path d="M0 0 C0.33 0 0.66 0 1 0 C1.05391993 1.79133978 1.09275571 3.58313899 1.125 5.375 C1.14820312 6.37273438 1.17140625 7.37046875 1.1953125 8.3984375 C1 11 1 11 -1 13 C-1.66 12.67 -2.32 12.34 -3 12 C-3.29344873 7.01137151 -3.05887078 4.03770942 0 0 Z " fill="#86C687" transform="translate(117,22)"/>
<path d="M0 0 C0.33 0.66 0.66 1.32 1 2 C2.65 2 4.3 2 6 2 C6.33 3.65 6.66 5.3 7 7 C5.35 7.33 3.7 7.66 2 8 C1.67 7.01 1.34 6.02 1 5 C0.01 4.67 -0.98 4.34 -2 4 C-2 3.01 -2 2.02 -2 1 C-1.34 0.67 -0.68 0.34 0 0 Z " fill="#84C787" transform="translate(63,9)"/>
<path d="M0 0 C0.66 0 1.32 0 2 0 C2 0.66 2 1.32 2 2 C2.66 2.33 3.32 2.66 4 3 C3.34 3.45375 2.68 3.9075 2 4.375 C1.01 5.179375 1.01 5.179375 0 6 C0 6.66 0 7.32 0 8 C0.99 8.66 1.98 9.32 3 10 C2.67 10.66 2.34 11.32 2 12 C0.35 12 -1.3 12 -3 12 C-2.88601335 10.37419034 -2.75844341 8.74932843 -2.625 7.125 C-2.55539063 6.22007813 -2.48578125 5.31515625 -2.4140625 4.3828125 C-2 2 -2 2 0 0 Z " fill="#A4D3A5" transform="translate(137,38)"/>
<path d="M0 0 C0.66 0 1.32 0 2 0 C1.85957123 1.64630328 1.71250671 3.29204179 1.5625 4.9375 C1.48128906 5.85402344 1.40007812 6.77054688 1.31640625 7.71484375 C1 10 1 10 0 11 C-0.36760731 13.32817964 -0.70241581 15.6618385 -1 18 C-2.8587516 14.8758675 -3.20151847 12.90682466 -2.75 9.3125 C-2.66234375 8.52488281 -2.5746875 7.73726562 -2.484375 6.92578125 C-2.32453125 6.29027344 -2.1646875 5.65476562 -2 5 C-1.34 4.67 -0.68 4.34 0 4 C0 2.68 0 1.36 0 0 Z " fill="#9ECDA1" transform="translate(115,16)"/>
<path d="M0 0 C4.80873987 2.47722963 8.43174665 5.98957117 12 10 C12 10.33 12 10.66 12 11 C10.02 11.33 8.04 11.66 6 12 C5.81824219 11.44570312 5.63648438 10.89140625 5.44921875 10.3203125 C5.07216797 9.23363281 5.07216797 9.23363281 4.6875 8.125 C4.44386719 7.40570313 4.20023438 6.68640625 3.94921875 5.9453125 C3.03664453 3.66005095 3.03664453 3.66005095 0 2 C0 1.34 0 0.68 0 0 Z " fill="#A7D6A8" transform="translate(34,79)"/>
<path d="M0 0 C6.4 -0.36923077 6.4 -0.36923077 9.4375 1.5 C9.953125 1.995 10.46875 2.49 11 3 C10.34 3.66 9.68 4.32 9 5 C5.61702587 4.82194873 4.23727939 4.21162756 1.6875 1.9375 C1.130625 1.298125 0.57375 0.65875 0 0 Z " fill="#85C788" transform="translate(98,5)"/>
<path d="M0 0 C2.09749995 2.35968744 2.96905704 3.54616994 3.1875 6.75 C3.125625 7.4925 3.06375 8.235 3 9 C1.35 8.67 -0.3 8.34 -2 8 C-2 5.69 -2 3.38 -2 1 C-1.34 0.67 -0.68 0.34 0 0 Z " fill="#86C689" transform="translate(16,79)"/>
<path d="M0 0 C-0.5 1.9375 -0.5 1.9375 -2 4 C-4.69658452 4.68790422 -7.2017019 4.81946464 -10 5 C-9.6875 3.0625 -9.6875 3.0625 -9 1 C-5.8035914 -0.06546953 -3.34252724 -0.07427838 0 0 Z " fill="#85C785" transform="translate(85,5)"/>
<path d="M0 0 C1.19882812 0.00483398 1.19882812 0.00483398 2.421875 0.00976562 C3.246875 0.01814453 4.071875 0.02652344 4.921875 0.03515625 C5.76234375 0.03966797 6.6028125 0.04417969 7.46875 0.04882812 C9.53648901 0.06057664 11.60419124 0.07851103 13.671875 0.09765625 C13.671875 0.42765625 13.671875 0.75765625 13.671875 1.09765625 C12.08246094 1.18853516 12.08246094 1.18853516 10.4609375 1.28125 C9.07290279 1.36565752 7.68488268 1.45030542 6.296875 1.53515625 C5.59820312 1.57447266 4.89953125 1.61378906 4.1796875 1.65429688 C0.29827008 1.84045759 0.29827008 1.84045759 -3.328125 3.09765625 C-5.32772512 3.13764825 -7.32859742 3.14112424 -9.328125 3.09765625 C-8.328125 1.09765625 -8.328125 1.09765625 -6.53613281 0.47875977 C-4.30540868 0.0937354 -2.26215661 -0.01615826 0 0 Z " fill="#B7E1BB" transform="translate(37.328125,1.90234375)"/>
<path d="M0 0 C1.32 0 2.64 0 4 0 C4 1.65 4 3.3 4 5 C2.41632253 4.85795259 0.83306682 4.71119847 -0.75 4.5625 C-1.63171875 4.48128906 -2.5134375 4.40007812 -3.421875 4.31640625 C-5.69350452 4.03761535 -7.79851823 3.61209423 -10 3 C-10 2.34 -10 1.68 -10 1 C-4.06 2.485 -4.06 2.485 2 4 C1.34 2.68 0.68 1.36 0 0 Z " fill="#AED9B1" transform="translate(50,102)"/>
<path d="M0 0 C0.33 0.66 0.66 1.32 1 2 C2.64363134 2.72159424 4.31050386 3.39351421 6 4 C6 5.65 6 7.3 6 9 C5.34 9 4.68 9 4 9 C4 8.01 4 7.02 4 6 C1.36095629 4.58622659 -1.07120629 3.62759865 -4 3 C-4 2.34 -4 1.68 -4 1 C-2 0 -2 0 0 0 Z " fill="#86C688" transform="translate(42,71)"/>
<path d="M0 0 C6.93 2.97 6.93 2.97 14 6 C14 6.33 14 6.66 14 7 C12.56163249 6.88541307 11.12429034 6.75790884 9.6875 6.625 C8.88699219 6.55539063 8.08648437 6.48578125 7.26171875 6.4140625 C5 6 5 6 2 4 C2 3.34 2 2.68 2 2 C1.34 2 0.68 2 0 2 C0 1.34 0 0.68 0 0 Z " fill="#AFD8B1" transform="translate(14,55)"/>
<path d="M0 0 C1.3303125 0.4021875 1.3303125 0.4021875 2.6875 0.8125 C2.6875 1.1425 2.6875 1.4725 2.6875 1.8125 C1.2953125 1.9671875 1.2953125 1.9671875 -0.125 2.125 C-3.9635983 2.93546219 -3.9635983 2.93546219 -6.3125 5.8125 C-7.05636068 8.12238315 -7.73440703 10.45565944 -8.3125 12.8125 C-8.6425 12.8125 -8.9725 12.8125 -9.3125 12.8125 C-9.07078822 8.05883498 -8.923693 5.6681702 -6.125 1.75 C-3.3125 -0.1875 -3.3125 -0.1875 0 0 Z " fill="#BFE2C1" transform="translate(105.3125,59.1875)"/>
<path d="M0 0 C0.66 0 1.32 0 2 0 C2 3.3 2 6.6 2 10 C1.67 8.68 1.34 7.36 1 6 C-1.33075929 6.95865509 -1.33075929 6.95865509 -3 10 C-2.25 2.25 -2.25 2.25 0 0 Z " fill="#91C796" transform="translate(99,66)"/>
<path d="M0 0 C0.99 0 1.98 0 3 0 C3.1875 3.375 3.1875 3.375 3 7 C0 9 0 9 -3 9 C-2.67 6.69 -2.34 4.38 -2 2 C-1.67 2 -1.34 2 -1 2 C-1 3.65 -1 5.3 -1 7 C-0.34 6.67 0.32 6.34 1 6 C1.65555119 3.47266765 1.65555119 3.47266765 2 1 C1.34 0.67 0.68 0.34 0 0 Z " fill="#C2E9C3" transform="translate(88,82)"/>
<path d="M0 0 C3.53600465 1.91135386 5.78972846 3.62642766 8 7 C6.68 7 5.36 7 4 7 C4 6.34 4 5.68 4 5 C3.01 5 2.02 5 1 5 C0.34 3.68 -0.32 2.36 -1 1 C-0.67 0.67 -0.34 0.34 0 0 Z " fill="#9FCDA1" transform="translate(20,67)"/>
<path d="M0 0 C0 0.66 0 1.32 0 2 C-1.051875 1.95875 -2.10375 1.9175 -3.1875 1.875 C-6.74010173 1.99147875 -8.84866641 2.47208068 -12 4 C-9.17895868 -2.24659149 -6.16171872 -0.89444304 0 0 Z " fill="#BBE0BD" transform="translate(96,76)"/>
<path d="M0 0 C0 3.55955169 -0.89341295 4.27899173 -3 7 C-3 7.66 -3 8.32 -3 9 C-2.34 9.66 -1.68 10.32 -1 11 C-2.32 11 -3.64 11 -5 11 C-5.44041451 5.62694301 -5.44041451 5.62694301 -5 3 C-2.5 1 -2.5 1 0 0 Z " fill="#B2DBB4" transform="translate(135,28)"/>
<path d="M0 0 C0.66 0 1.32 0 2 0 C2.33 0.99 2.66 1.98 3 3 C4.99665314 4.68538601 4.99665314 4.68538601 7 6 C6.34 6 5.68 6 5 6 C4.67 6.66 4.34 7.32 4 8 C3.67 7.01 3.34 6.02 3 5 C0.98491642 4.26676204 0.98491642 4.26676204 -1 4 C-0.67 2.68 -0.34 1.36 0 0 Z " fill="#82C786" transform="translate(22,92)"/>
<path d="M0 0 C7.57142857 4 7.57142857 4 10 8 C8.02 7.34 6.04 6.68 4 6 C4 5.34 4 4.68 4 4 C3.01 3.67 2.02 3.34 1 3 C0.67 2.01 0.34 1.02 0 0 Z " fill="#ACD8AD" transform="translate(38,67)"/>
<path d="M0 0 C0.33 0.66 0.66 1.32 1 2 C0.71125 2.70125 0.4225 3.4025 0.125 4.125 C-1.30624915 7.78263671 -1.60300314 11.09619753 -2 15 C-2.33 15 -2.66 15 -3 15 C-3.08107583 13.06318839 -3.13922475 11.1254066 -3.1875 9.1875 C-3.22230469 8.10855469 -3.25710938 7.02960937 -3.29296875 5.91796875 C-3 3 -3 3 -1.48828125 1.11328125 C-0.99714844 0.74589844 -0.50601562 0.37851562 0 0 Z " fill="#BEE0C0" transform="translate(13,25)"/>
<path d="M0 0 C3.53790403 3.69172595 3.59115883 7.09390595 4 12 C1.7448078 9.7448078 1.02276532 7.9952413 0 5 C0 4.01 0 3.02 0 2 C-0.99 1.67 -1.98 1.34 -3 1 C-2.01 0.67 -1.02 0.34 0 0 Z " fill="#A4D0A5" transform="translate(121,23)"/>
<path d="M0 0 C0.66 0 1.32 0 2 0 C1.34 1.98 0.68 3.96 0 6 C-0.66 6 -1.32 6 -2 6 C-2 6.66 -2 7.32 -2 8 C-2.66 8 -3.32 8 -4 8 C-3.67 6.35 -3.34 4.7 -3 3 C-2.34 3 -1.68 3 -1 3 C-0.67 2.01 -0.34 1.02 0 0 Z " fill="#86C48A" transform="translate(15,14)"/>
<path d="M0 0 C-0.33 1.65 -0.66 3.3 -1 5 C-1.99 5 -2.98 5 -4 5 C-4 4.34 -4 3.68 -4 3 C-4.99 2.67 -5.98 2.34 -7 2 C-4 0 -4 0 0 0 Z " fill="#8ECD90" transform="translate(114,7)"/>
<path d="M0 0 C-0.33 1.32 -0.66 2.64 -1 4 C-3.31 4.33 -5.62 4.66 -8 5 C-7.67 4.34 -7.34 3.68 -7 3 C-6.34 3.33 -5.68 3.66 -5 4 C-4.67 3.01 -4.34 2.02 -4 1 C-2 0 -2 0 0 0 Z " fill="#B2D8B2" transform="translate(136,21)"/>
<path d="M0 0 C1.9453125 -0.29296875 1.9453125 -0.29296875 4.125 -0.1875 C5.40375 -0.125625 6.6825 -0.06375 8 0 C8.33 0.66 8.66 1.32 9 2 C5.37 2.33 1.74 2.66 -2 3 C-1.34 2.01 -0.68 1.02 0 0 Z " fill="#B3D9B7" transform="translate(55,115)"/>
<path d="M0 0 C0.99 0.66 1.98 1.32 3 2 C3 2.66 3 3.32 3 4 C2.34 4 1.68 4 1 4 C1 4.66 1 5.32 1 6 C0.01 5.67 -0.98 5.34 -2 5 C-1.125 1.125 -1.125 1.125 0 0 Z " fill="#92CA94" transform="translate(37,68)"/>
<path d="M0 0 C-1 2 -2 4 -3 6 C-3.66 6 -4.32 6 -5 6 C-5 4.35 -5 2.7 -5 1 C-3 0 -3 0 0 0 Z " fill="#ABD7AE" transform="translate(18,19)"/>
<path d="M0 0 C-3.22515763 1.73662334 -6.51329166 2.8905928 -10 4 C-10 3.01 -10 2.02 -10 1 C-6.78548731 -0.60725635 -3.56387464 -0.05748185 0 0 Z " fill="#B2DAB6" transform="translate(86,9)"/>
<path d="M0 0 C2.31 0 4.62 0 7 0 C7.33 1.32 7.66 2.64 8 4 C2.25 2.25 2.25 2.25 0 0 Z " fill="#AEDBB2" transform="translate(103,10)"/>
<path d="M0 0 C1.98 0.99 1.98 0.99 4 2 C2.68 2 1.36 2 0 2 C0 1.34 0 0.68 0 0 Z " fill="#EBF9ED" transform="translate(74,112)"/>
</svg>
